<?xml version="1.0" encoding="utf-8"?>
<!-- Generator: Adobe Illustrator 27.8.1, SVG Export Plug-In . SVG Version: 6.00 Build 0)  -->
<svg version="1.1" id="Layer_1" xmlns="http://www.w3.org/2000/svg" xmlns:xlink="http://www.w3.org/1999/xlink" x="0px" y="0px"
	 viewBox="0 0 118.29 80" style="enable-background:new 0 0 118.29 80;" xml:space="preserve">
<style type="text/css">
	.st0{fill:url(#SVGID_1_);}
	.st1{fill:url(#SVGID_00000165952662822575442870000001951216029691232444_);}
	.st2{fill:url(#SVGID_00000147930087752233263320000003066139858243143053_);}
	.st3{fill:url(#SVGID_00000023278665762878341460000011297244850806418343_);}
	.st4{fill:#782E18;}
	.st5{fill:url(#SVGID_00000021121185467007873030000006318933169705147833_);}
	.st6{fill:url(#SVGID_00000029740410820262753610000010840423573426118018_);}
	.st7{fill:url(#SVGID_00000103962916348503656550000003444939561616115894_);}
	.st8{fill:url(#SVGID_00000183244675620201170130000014131222285905779341_);}
	.st9{fill:none;stroke:#782E18;stroke-width:0.21;stroke-miterlimit:10;}
	.st10{font-family:'MyriadPro-Regular';}
	.st11{font-size:1.8923px;}
</style>
<linearGradient id="SVGID_1_" gradientUnits="userSpaceOnUse" x1="8.0002" y1="4.9442" x2="6.9683" y2="80.7857">
	<stop  offset="0" style="stop-color:#27AAE1"/>
	<stop  offset="1" style="stop-color:#1C75BC"/>
</linearGradient>
<path class="st0" d="M4.73,65.68h4.59l4.16,11.03H9.59l-0.54-1.66H4.82l-0.54,1.66H0.57L4.73,65.68z M6.94,68.63L5.67,72.5h2.54
	L6.94,68.63z"/>
<linearGradient id="SVGID_00000036939317244198553540000006745076074072454071_" gradientUnits="userSpaceOnUse" x1="20.0157" y1="5.1041" x2="18.9835" y2="80.9657">
	<stop  offset="0" style="stop-color:#27AAE1"/>
	<stop  offset="1" style="stop-color:#1C75BC"/>
</linearGradient>
<path style="fill:url(#SVGID_00000036939317244198553540000006745076074072454071_);" d="M14.06,65.68h5.91
	c1.2,0,2.09,0.11,2.68,0.33c0.87,0.32,1.3,1.09,1.3,2.3c0,0.68-0.15,1.28-0.46,1.77c-0.31,0.5-0.77,0.81-1.39,0.93
	c0.69,0.11,1.21,0.38,1.57,0.8c0.36,0.43,0.54,0.97,0.54,1.65c0,1.48-0.5,2.44-1.5,2.88c-0.54,0.24-1.33,0.36-2.36,0.36h-6.29V65.68
	z M17.52,70h2.21c0.56,0,0.84-0.33,0.84-0.99c0-0.34-0.08-0.6-0.24-0.76c-0.16-0.15-0.39-0.23-0.7-0.23h-2.11V70z M17.52,74.31h2.32
	c0.38,0,0.64-0.12,0.78-0.35c0.1-0.17,0.15-0.4,0.15-0.7c0-0.14-0.01-0.27-0.03-0.36c-0.02-0.1-0.06-0.21-0.12-0.32
	c-0.06-0.12-0.16-0.2-0.29-0.26c-0.13-0.06-0.31-0.09-0.52-0.09h-2.29V74.31z"/>
<linearGradient id="SVGID_00000170979352540425264110000003352872093042126466_" gradientUnits="userSpaceOnUse" x1="30.5175" y1="5.2228" x2="29.4847" y2="81.13">
	<stop  offset="0" style="stop-color:#27AAE1"/>
	<stop  offset="1" style="stop-color:#1C75BC"/>
</linearGradient>
<path style="fill:url(#SVGID_00000170979352540425264110000003352872093042126466_);" d="M26.47,75.63
	c-0.81-0.86-1.21-2.33-1.21-4.43c0-2.1,0.4-3.58,1.21-4.43c0.81-0.86,2.22-1.28,4.24-1.28c1.02,0,2.09,0.12,3.2,0.35v2.7
	c-1.31-0.17-2.26-0.25-2.86-0.25c-0.87,0-1.47,0.22-1.8,0.66c-0.33,0.44-0.49,1.19-0.49,2.25s0.16,1.81,0.49,2.25
	c0.33,0.44,0.93,0.66,1.8,0.66c0.6,0,1.55-0.08,2.86-0.25v2.7c-1.12,0.23-2.18,0.35-3.2,0.35C28.69,76.91,27.28,76.48,26.47,75.63z"
	/>
<linearGradient id="SVGID_00000140013307469199258790000001146363804277337231_" gradientUnits="userSpaceOnUse" x1="39.4865" y1="5.3596" x2="38.4538" y2="81.2604">
	<stop  offset="0" style="stop-color:#27AAE1"/>
	<stop  offset="1" style="stop-color:#1C75BC"/>
</linearGradient>
<path style="fill:url(#SVGID_00000140013307469199258790000001146363804277337231_);" d="M35.14,76.56v-2.3
	c1.07,0.28,2.08,0.41,3.04,0.41c0.52,0,0.78-0.13,0.78-0.38c0-0.08-0.01-0.14-0.03-0.17c-0.02-0.04-0.1-0.09-0.23-0.15
	c-0.13-0.06-0.33-0.12-0.59-0.17l-0.42-0.08c-0.71-0.13-1.23-0.29-1.56-0.46c-0.33-0.18-0.59-0.39-0.79-0.63
	c-0.23-0.32-0.34-0.81-0.34-1.47c0-0.43,0.05-0.8,0.16-1.11c0.1-0.31,0.29-0.59,0.56-0.84c0.27-0.25,0.66-0.43,1.17-0.56
	c0.51-0.12,1.14-0.18,1.9-0.18c0.98,0,1.98,0.1,3.01,0.31v2.15c-1-0.21-1.96-0.31-2.87-0.31c-0.5,0-0.75,0.12-0.75,0.36
	c0,0.08,0.01,0.14,0.03,0.17c0.02,0.04,0.09,0.09,0.22,0.16c0.13,0.07,0.32,0.12,0.57,0.17l0.4,0.08c1.12,0.22,1.88,0.55,2.27,0.99
	c0.33,0.35,0.49,0.89,0.49,1.61c0,0.57-0.09,1.05-0.28,1.42c-0.19,0.37-0.56,0.67-1.11,0.91c-0.55,0.24-1.3,0.36-2.25,0.36
	C37.07,76.84,35.94,76.75,35.14,76.56z"/>
<path class="st4" d="M47.09,65.68h6.12c0.98,0,1.72,0.13,2.23,0.4c0.53,0.28,0.94,0.72,1.23,1.33c0.29,0.61,0.43,1.31,0.43,2.12
	c0,0.81-0.14,1.51-0.43,2.1c-0.28,0.59-0.7,1.02-1.23,1.3c-0.51,0.27-1.25,0.4-2.23,0.4h-2.65v3.4h-3.47V65.68z M50.57,70.85h1.78
	c0.41,0,0.7-0.05,0.87-0.15c0.29-0.2,0.43-0.6,0.43-1.21c0-0.64-0.19-1.05-0.57-1.23c-0.18-0.09-0.45-0.13-0.82-0.13h-1.69V70.85z"
	/>
<path class="st4" d="M61.39,68.59v4.56c0,0.41,0.03,0.7,0.1,0.86c0.11,0.26,0.34,0.4,0.69,0.4c0.27,0,0.63-0.07,1.09-0.22v-5.6h3.11
	v8.12h-2.69l-0.07-0.41c-1.04,0.36-1.94,0.55-2.69,0.55c-0.65,0-1.17-0.14-1.57-0.41c-0.32-0.23-0.57-0.56-0.75-0.98
	c-0.14-0.32-0.23-0.66-0.27-1.01c-0.04-0.34-0.06-0.76-0.06-1.26v-4.59H61.39z"/>
<path class="st4" d="M88.58,77.08c0.64,0,1.05-0.18,1.24-0.53l0.06-0.12h-0.87l-2.99-7.84h3.34l1.54,5.07l1.48-5.07h3.35l-2.83,7.6
	c-0.31,0.83-0.59,1.44-0.83,1.83c-0.24,0.39-0.51,0.69-0.8,0.9c-0.54,0.39-1.29,0.58-2.26,0.58c-0.44,0-0.99-0.05-1.65-0.15v-2.37
	C87.91,77.05,88.32,77.08,88.58,77.08z"/>
<linearGradient id="SVGID_00000013897155341410608260000010808726320156948151_" gradientUnits="userSpaceOnUse" x1="105.6694" y1="6.3915" x2="104.6376" y2="82.2272">
	<stop  offset="0" style="stop-color:#27AAE1"/>
	<stop  offset="1" style="stop-color:#1C75BC"/>
</linearGradient>
<path style="fill:url(#SVGID_00000013897155341410608260000010808726320156948151_);" d="M109.41,65.68v3.02l-5.58,5.43h5.73v2.58
	h-9.65v-3l5.57-5.45h-5.42v-2.58H109.41z"/>
<linearGradient id="SVGID_00000080897354596163213860000004271639701841222811_" gradientUnits="userSpaceOnUse" x1="114.9869" y1="6.4737" x2="113.9542" y2="82.3744">
	<stop  offset="0" style="stop-color:#27AAE1"/>
	<stop  offset="1" style="stop-color:#1C75BC"/>
</linearGradient>
<path style="fill:url(#SVGID_00000080897354596163213860000004271639701841222811_);" d="M110.65,76.56v-2.3
	c1.07,0.28,2.08,0.41,3.04,0.41c0.52,0,0.78-0.13,0.78-0.38c0-0.08-0.01-0.14-0.03-0.17c-0.02-0.04-0.1-0.09-0.23-0.15
	c-0.13-0.06-0.33-0.12-0.59-0.17l-0.42-0.08c-0.71-0.13-1.23-0.29-1.56-0.46c-0.33-0.18-0.59-0.39-0.79-0.63
	c-0.23-0.32-0.34-0.81-0.34-1.47c0-0.43,0.05-0.8,0.16-1.11c0.1-0.31,0.29-0.59,0.56-0.84c0.27-0.25,0.66-0.43,1.17-0.56
	c0.51-0.12,1.14-0.18,1.9-0.18c0.98,0,1.98,0.1,3.01,0.31v2.15c-1-0.21-1.96-0.31-2.87-0.31c-0.5,0-0.75,0.12-0.75,0.36
	c0,0.08,0.01,0.14,0.03,0.17c0.02,0.04,0.09,0.09,0.22,0.16c0.13,0.07,0.32,0.12,0.57,0.17l0.4,0.08c1.12,0.22,1.88,0.55,2.28,0.99
	c0.33,0.35,0.49,0.89,0.49,1.61c0,0.57-0.09,1.05-0.28,1.42c-0.19,0.37-0.56,0.67-1.11,0.91c-0.55,0.24-1.3,0.36-2.25,0.36
	C112.58,76.84,111.46,76.75,110.65,76.56z"/>
<linearGradient id="SVGID_00000090278970330453070940000014815980276934666154_" gradientUnits="userSpaceOnUse" x1="55.5031" y1="5.5877" x2="54.4703" y2="81.4956">
	<stop  offset="0" style="stop-color:#27AAE1"/>
	<stop  offset="1" style="stop-color:#1C75BC"/>
</linearGradient>
<path style="fill:url(#SVGID_00000090278970330453070940000014815980276934666154_);" d="M70.6,19.69c0-0.01-6.82-18.5-16.26-14.43
	c0,0-20.43,10.09-1.22,56.59c-1.31-3.18-3.58-5.73-5.31-8.63c-7.17-12.03-11.17-32.06-4.27-45.08c2.99-5.64,9.32-9.64,15.4-6.61
	C65.67,4.89,68.04,12.77,70.6,19.69z"/>
<linearGradient id="SVGID_00000005224830732154906560000006894267504403283386_" gradientUnits="userSpaceOnUse" x1="76.4764" y1="5.9224" x2="75.4445" y2="81.7721">
	<stop  offset="0" style="stop-color:#27AAE1"/>
	<stop  offset="1" style="stop-color:#1C75BC"/>
</linearGradient>
<path style="fill:url(#SVGID_00000005224830732154906560000006894267504403283386_);" d="M72.5,28.67c0,0,14.17-4.96,16.83,3.82
	c0,0,5.02,19.68-31.68,30.69c2.51-0.75,5.16-0.51,7.73-0.82c10.66-1.3,24.22-9.05,28.01-20.76c1.64-5.08,0.58-11.63-4.36-14.31
	C83.56,24.33,77.8,26.82,72.5,28.67z"/>
<path class="st4" d="M72.91,68.46c-0.7,0-1.5,0.22-2.41,0.66l-0.07-0.53H67.7v10.79h3.11V76.6c0.79,0.17,1.49,0.25,2.1,0.25
	c2.13,0,3.2-1.4,3.2-4.19v-0.12C76.11,69.82,75.04,68.46,72.91,68.46z M72.41,71c0.1-0.58,0.49-1,0.88-0.92
	c0.39,0.08,0.63,0.61,0.53,1.2c-0.1,0.58-0.49,0.99-0.88,0.92C72.56,72.12,72.32,71.58,72.41,71z M71.16,70.09
	c0.39-0.08,0.79,0.33,0.89,0.91c0.1,0.58-0.14,1.12-0.53,1.2c-0.39,0.08-0.79-0.33-0.89-0.91C70.54,70.7,70.77,70.17,71.16,70.09z
	 M70.38,73.32c-0.27,0.15-0.64-0.04-0.83-0.44c-0.19-0.39-0.14-0.84,0.13-0.99c0.26-0.15,0.64,0.04,0.83,0.44
	C70.7,72.73,70.65,73.17,70.38,73.32z M72.28,74.73c-0.64,0-2.01,0.48-1.72-0.43c0.33-1.02,0.77-1.74,1.72-1.74
	c0.95,0,1.34,0.64,1.73,1.73C74.32,75.18,72.98,74.73,72.28,74.73z M74.93,72.83c-0.17,0.41-0.52,0.63-0.8,0.5
	c-0.27-0.13-0.36-0.57-0.19-0.98c0.17-0.41,0.53-0.63,0.8-0.5C75.01,71.98,75.09,72.42,74.93,72.83z"/>
<path class="st4" d="M82.43,68.46c-0.7,0-1.5,0.22-2.41,0.66l-0.07-0.53h-2.72v10.79h3.11V76.6c0.79,0.17,1.49,0.25,2.1,0.25
	c2.13,0,3.2-1.4,3.2-4.19v-0.12C85.63,69.82,84.56,68.46,82.43,68.46z M81.61,71.09c0.1-0.58,0.49-1,0.88-0.92
	c0.39,0.08,0.63,0.61,0.53,1.2c-0.1,0.58-0.49,0.99-0.88,0.92C81.75,72.21,81.52,71.68,81.61,71.09z M80.36,70.18
	c0.39-0.08,0.79,0.33,0.89,0.91c0.1,0.58-0.14,1.12-0.53,1.2c-0.39,0.08-0.79-0.33-0.89-0.91C79.73,70.8,79.97,70.26,80.36,70.18z
	 M79.58,73.42c-0.27,0.15-0.64-0.04-0.83-0.44c-0.19-0.39-0.14-0.84,0.13-0.99c0.26-0.15,0.64,0.04,0.83,0.44
	C79.9,72.82,79.84,73.26,79.58,73.42z M81.48,74.82c-0.64,0-2.01,0.48-1.72-0.43c0.33-1.02,0.77-1.74,1.72-1.74
	c0.95,0,1.34,0.64,1.73,1.73C83.52,75.28,82.17,74.82,81.48,74.82z M84.12,72.92c-0.17,0.41-0.52,0.63-0.8,0.5
	c-0.27-0.13-0.36-0.57-0.19-0.98c0.17-0.41,0.53-0.63,0.8-0.5C84.21,72.08,84.29,72.52,84.12,72.92z"/>
<g>
	<path class="st4" d="M60.96,21.45c0.28,0.03,0.72,0.07,0.67,0.47c-0.08-0.05-0.26-0.14-0.34-0.18c0.05,0.23,0.16,0.44,0.23,0.67
		c-0.29-0.03-0.43-0.31-0.63-0.48c-0.07,0.11-0.13,0.22-0.2,0.33c-0.11,0.03-0.26-0.01-0.35,0.08c-0.16,0.14-0.1,0.36-0.11,0.55
		c-0.09-0.02-0.18-0.05-0.27-0.07c-0.09,0.11-0.17,0.23-0.27,0.34c-0.22-0.01-0.44-0.05-0.66-0.07c0.03,0.14,0.07,0.29,0.1,0.43
		c-0.19,0.02-0.39,0.03-0.58,0.04c0.11,0.07,0.22,0.14,0.33,0.22c-0.2,0.06-0.41,0.08-0.6,0.16c-0.14,0.13-0.26,0.29-0.39,0.42
		c0.04,0.04,0.11,0.12,0.15,0.16c-0.11,0.26-0.18,0.54-0.35,0.77c-0.01,0.23,0.01,0.47-0.06,0.7c-0.08,0.21-0.3,0.32-0.49,0.42
		c-0.13-0.06-0.26-0.12-0.38-0.19c0.22-0.03,0.54-0.02,0.6-0.3c0.04-0.43,0.02-0.9,0.26-1.29c-0.34-0.32,0.09-0.65,0.32-0.87
		c0.15-0.33,0.6-0.3,0.87-0.5c-0.15-0.06-0.3-0.13-0.45-0.19c0.42-0.14,0.86-0.21,1.29-0.28c0.16-0.14,0.19-0.36,0.25-0.56
		c0.07,0.01,0.2,0.02,0.27,0.02c0.04-0.17,0.07-0.34,0.1-0.51c0.25,0.08,0.49,0.02,0.72-0.1C60.97,21.61,60.96,21.5,60.96,21.45z"/>
	<path class="st4" d="M62.15,21.67c0.15-0.12,0.3-0.23,0.49-0.29c0.02,0.07,0.06,0.22,0.08,0.29c0.11-0.01,0.22-0.02,0.33-0.03
		c0.03,0.06,0.09,0.19,0.13,0.25c0.35,0.12,0.71,0.23,1.07,0.34c0.27-0.08,0.61-0.2,0.86,0.01c-0.13,0.06-0.27,0.12-0.4,0.19
		c0.26,0.07,0.52,0.09,0.78,0.15c0.35,0.25,0.97,0.38,0.89,0.93c0.29,0.32,0.41,0.76,0.55,1.16c0.13,0.26,0.41,0.21,0.63,0.11
		c-0.06,0.09-0.12,0.18-0.17,0.27c0.08,0.14,0.18,0.28,0.28,0.4c0.08-0.06,0.16-0.11,0.24-0.17c-0.04,0.55-0.02,1.12,0.3,1.59
		c0.09,0,0.28,0.01,0.37,0.02c-0.09,0.11-0.19,0.21-0.29,0.32c0.18,0.31,0.24,0.68,0.07,1c-0.15-0.23-0.27-0.48-0.42-0.71
		c-0.06,0.42-0.08,0.87-0.3,1.25c-0.13-0.08-0.12-0.25-0.16-0.38c-0.15,0.18-0.25,0.42-0.15,0.66c0.1,0.13,0.22,0.23,0.32,0.35
		c-0.22,0.1-0.47-0.08-0.67,0.06c-0.09,0.21-0.03,0.46-0.06,0.68c-0.11,0.15-0.09,0.32-0.06,0.49c-0.23,0-0.37-0.26-0.55-0.38
		c-0.13,0.33,0.17,0.56,0.33,0.8c-0.28,0.02-0.63-0.05-0.75-0.34c-0.05-0.24-0.04-0.58,0.21-0.71c0.24-0.11,0.31-0.36,0.45-0.56
		c0-0.13,0.01-0.25,0.01-0.38c0.44-0.07,0.29-0.57,0.29-0.88c0.04-0.04,0.12-0.12,0.16-0.16c0.01-0.08,0.04-0.25,0.05-0.33
		c0.09,0.08,0.18,0.16,0.27,0.24c-0.12-0.23-0.11-0.48,0-0.71c0.1,0.13,0.21,0.26,0.32,0.38c-0.05-0.25-0.13-0.49-0.15-0.75
		c0.19,0.2,0.35,0.44,0.59,0.57c-0.1-0.19-0.28-0.34-0.29-0.57c-0.03-0.4-0.23-0.76-0.38-1.13c-0.08-0.17-0.14-0.34-0.22-0.51
		c-0.16-0.1-0.36-0.15-0.49-0.3c-0.19-0.25-0.2-0.6-0.39-0.86c-0.08-0.12-0.16-0.25-0.22-0.37c-0.07-0.06-0.15-0.12-0.22-0.18
		c0.07-0.1,0.13-0.2,0.18-0.31c-0.13-0.02-0.26-0.03-0.38-0.04c-0.31-0.22-0.71-0.56-1.1-0.35c-0.06-0.11-0.11-0.21-0.17-0.32
		c-0.15,0.15-0.29,0.3-0.48,0.41c-0.02-0.17,0.09-0.38-0.05-0.52c-0.36-0.1-0.75-0.26-1.1-0.04c0.01-0.04,0.03-0.13,0.04-0.18
		c-0.12-0.06-0.23-0.14-0.34-0.21c-0.12,0.11-0.25,0.2-0.36,0.32c-0.14,0.2-0.2,0.45-0.37,0.63c-0.04-0.3,0.1-0.58,0.17-0.87
		c-0.12-0.13-0.19-0.3-0.07-0.46C61.9,21.58,62.07,21.64,62.15,21.67z"/>
	<path class="st4" d="M63.71,23.23c0.12-0.07,0.23-0.16,0.37-0.18c0.21,0.05,0.37,0.21,0.57,0.29c0.2-0.02,0.36-0.16,0.55-0.22
		c0.02,0.14-0.07,0.25-0.15,0.36c0.36,0.33,1.05,0.57,0.87,1.18c-0.16-0.1-0.28-0.26-0.41-0.4c0.07,0.24,0.14,0.49,0.14,0.75
		c-0.08-0.02-0.25-0.05-0.34-0.06c-0.01,0.07-0.03,0.21-0.04,0.28c-0.17-0.19-0.28-0.43-0.49-0.58c-0.2-0.11-0.44-0.13-0.65-0.22
		c0.2-0.08,0.4-0.13,0.6-0.19c-0.14-0.1-0.27-0.2-0.4-0.31c0.2-0.05,0.4-0.09,0.61-0.13C64.5,23.71,64.11,23.47,63.71,23.23z"/>
	<path class="st4" d="M58.75,24.24c0.17-0.19,0.45-0.22,0.69-0.27c-0.14,0.15-0.28,0.28-0.42,0.43c0.21-0.04,0.43-0.09,0.64-0.11
		c-0.14,0.18-0.3,0.35-0.45,0.52c0.21-0.06,0.42-0.11,0.63-0.15c0.01,0.04,0.04,0.13,0.06,0.18c-0.3,0.08-0.58,0.28-0.66,0.59
		c0.24,0.1,0.48,0.19,0.7,0.33c-0.2,0.05-0.44,0.06-0.6,0.21c-0.16,0.16-0.21,0.39-0.33,0.58c-0.04-0.15-0.06-0.3-0.08-0.46
		c-0.14,0.07-0.27,0.15-0.41,0.21c0.07-0.11,0.14-0.22,0.22-0.33c-0.14-0.32-0.13-0.66,0.03-0.97c-0.16,0.09-0.31,0.18-0.46,0.26
		C58.44,24.92,58.81,24.66,58.75,24.24z"/>
	<path class="st4" d="M60.76,24.02c0.72-0.09,1.13,0.59,1.39,1.14c-0.01-0.38-0.25-0.69-0.41-1.02c0.34,0.05,0.55,0.37,0.63,0.68
		c0.07,0.34-0.07,0.66-0.12,0.99c0.21-0.26,0.29-0.58,0.37-0.91c0.09,0.11,0.22,0.23,0.15,0.39c-0.08,0.56-0.78,0.78-0.78,1.36
		c-0.05,0.25,0.07,0.58-0.19,0.73c-0.03-0.6-0.13-1.19-0.31-1.77c0.13,0.08,0.25,0.17,0.39,0.25c0.04-0.08,0.11-0.23,0.14-0.31
		c-0.05-0.01-0.15-0.02-0.2-0.03c-0.01-0.28-0.02-0.59-0.2-0.83C61.42,24.37,61.04,24.25,60.76,24.02z"/>
	<path class="st4" d="M62.9,25.77c-0.11-0.48,0.19-1.05,0.71-1.12c0.01,0.04,0.04,0.13,0.05,0.18c-0.12,0.06-0.24,0.13-0.35,0.2
		c0.69,0.01,1.05,0.67,1.45,1.12c-0.02-0.13-0.06-0.38-0.08-0.51c0.18,0.16,0.36,0.33,0.56,0.47c-0.06-0.3-0.21-0.58-0.3-0.88
		c0.29,0.09,0.48,0.34,0.62,0.6c-0.12,0.3-0.08,0.63-0.11,0.95c-0.15-0.1-0.25-0.25-0.35-0.4c-0.02,0.16-0.05,0.32-0.09,0.48
		c-0.26-0.25-0.43-0.58-0.71-0.81c-0.14-0.14-0.29-0.04-0.4,0.08c-0.06-0.04-0.12-0.08-0.19-0.12c0.13-0.07,0.23-0.16,0.32-0.28
		c-0.13,0.07-0.25,0.15-0.37,0.24c-0.09-0.09-0.19-0.17-0.28-0.26c-0.18,0.28,0.3,0.26,0.41,0.46c-0.25,0-0.49-0.02-0.73-0.03
		c0.04-0.36,0.2-0.73,0.59-0.83C63.28,25.16,63.12,25.57,62.9,25.77z"/>
	<path class="st4" d="M66.26,24.82c0.12,0.11,0.19,0.28,0.34,0.35c0.09,0,0.27-0.01,0.36-0.02c-0.12,0.26,0.15,0.41,0.27,0.6
		c0.1,0.13,0.11,0.29,0.14,0.44c-0.14-0.11-0.28-0.22-0.42-0.33c0.26,0.38,0.4,0.89,0.1,1.29c-0.04-0.35,0-0.72-0.23-1.01
		c0.09,0.49-0.01,0.99-0.11,1.47c-0.21-0.32-0.12-0.69-0.07-1.04c-0.15,0.08-0.31,0.17-0.47,0.23c0.06-0.15,0.13-0.29,0.19-0.44
		c-0.07-0.21-0.2-0.4-0.29-0.59c0.06-0.12,0.12-0.25,0.19-0.36C66.22,25.2,66.15,25,66.26,24.82z"/>
	<path class="st4" d="M59.78,25.37c0.38-0.1,0.88-0.19,1.12,0.2c0.08,0.3,0.14,0.61,0.28,0.9c-0.25-0.09-0.51-0.22-0.79-0.22
		c-0.24,0.05-0.44,0.18-0.66,0.27c-0.02-0.06-0.07-0.17-0.09-0.23c-0.13,0.07-0.27,0.13-0.41,0.17c0.17-0.26,0.45-0.65,0.8-0.49
		c0.04-0.04,0.12-0.13,0.16-0.17c0.07,0.09,0.14,0.18,0.21,0.27c0.08,0,0.24,0.01,0.32,0.01c-0.26-0.07-0.45-0.28-0.35-0.56
		c-0.12,0.09-0.24,0.18-0.36,0.28C59.93,25.65,59.85,25.51,59.78,25.37z"/>
	<path class="st4" d="M58.11,25.91c0.14,0.36-0.32,0.59-0.3,0.94c-0.03,0.19,0.15,0.3,0.24,0.44c-0.09-0.01-0.26-0.04-0.35-0.05
		c-0.09,0.2-0.18,0.4-0.37,0.53c0.06-0.48,0.09-0.96,0.19-1.44C57.72,26.2,58,26.17,58.11,25.91z"/>
	<g>
		<path class="st4" d="M56.81,26.93c0.1-0.24,0.27-0.43,0.51-0.54c-0.15,0.56-0.24,1.14-0.28,1.71c0.12,0.31-0.01,0.61-0.16,0.88
			c0.25-0.18,0.34-0.48,0.45-0.75c0.06,0.26,0.04,0.52,0.06,0.78c0.08-0.15,0.16-0.3,0.23-0.45c0.34,0.38-0.05,0.88,0.13,1.32
			c0.07,0.01,0.21,0.02,0.28,0.03c0.02,0.24,0.02,0.49,0.01,0.73c0.05,0,0.14-0.02,0.19-0.02c0.02,0.16,0.04,0.31,0.06,0.47
			c0.17-0.11,0.34-0.21,0.55-0.23c0.01,0.17,0.02,0.34,0.03,0.51c0.05-0.07,0.14-0.22,0.19-0.29c0.05,0.02,0.15,0.07,0.2,0.09
			c0.02-0.17,0.04-0.34,0.06-0.51c-0.16,0.09-0.36,0.13-0.45-0.07c-0.2-0.24-0.06-0.54,0.03-0.78c-0.03-0.04-0.09-0.13-0.12-0.17
			c-0.14,0.03-0.29,0.05-0.43,0.07c0.09-0.16,0.19-0.31,0.27-0.47c0.05-0.25-0.03-0.51-0.08-0.75c0.03-0.02,0.09-0.06,0.12-0.08
			c0.07,0.14,0.15,0.27,0.22,0.4c0.03-0.33-0.06-0.73,0.27-0.93c0-0.34,0.2-0.62,0.45-0.83c0.2,0.03,0.39-0.05,0.59-0.06
			c-0.19,0.18-0.38,0.37-0.55,0.58c0.1,0,0.2,0,0.3-0.01c-0.12,0.36-0.25,0.72-0.43,1.05c0.11-0.08,0.22-0.17,0.33-0.25
			c0.15-0.01,0.31-0.03,0.46-0.03c-0.15,0.16-0.3,0.31-0.46,0.45c0.14,0.02,0.29,0.03,0.42,0.08c-0.38,0.12-0.78,0.25-1.01,0.6
			c0.17-0.06,0.34-0.11,0.5-0.17c-0.19,0.26-0.42,0.5-0.46,0.84c0.22-0.24,0.47-0.56,0.85-0.43c-0.21,0.3-0.34,0.64-0.38,1.01
			c0.15-0.07,0.29-0.14,0.44-0.2c-0.04,0.21-0.1,0.42-0.14,0.64c0.12-0.15,0.23-0.31,0.35-0.46c0.04,0.08,0.12,0.23,0.17,0.3
			c0.06-0.16,0.13-0.31,0.2-0.47c0.06,0.01,0.17,0.04,0.22,0.05c0.08-0.13,0.2-0.16,0.33-0.1c0.16-0.06,0.32-0.11,0.47-0.17
			c-0.24-0.24-0.57-0.37-0.81-0.62c-0.24-0.22-0.31-0.56-0.51-0.81c0.4-0.13,0.65-0.59,1.12-0.56c0.07-0.2,0.13-0.41,0.26-0.58
			c0.03,0.21,0.03,0.43,0.03,0.65c0.15-0.01,0.29,0.02,0.42,0.1c0.22,0.01,0.44,0.07,0.62,0.21c0.07,0,0.2,0.01,0.27,0.01
			c-0.08,0.07-0.17,0.15-0.25,0.22c-0.01,0.17,0.05,0.36-0.06,0.51c-0.22,0.3-0.54,0.51-0.86,0.7c0,0.04,0.01,0.13,0.01,0.17
			c0.16,0.07,0.31,0.16,0.46,0.26c0.04-0.03,0.12-0.09,0.16-0.13c0.12,0.07,0.24,0.14,0.36,0.21c0.07-0.03,0.13-0.06,0.2-0.08
			c0.18,0.17,0.39,0.31,0.63,0.39c-0.05-0.1-0.1-0.21-0.16-0.31c0.14,0.01,0.27,0.01,0.41,0.02c-0.03-0.14-0.07-0.28-0.1-0.42
			c0.1,0.07,0.19,0.14,0.29,0.22c-0.07-0.38-0.14-0.77-0.42-1.06c0.21-0.01,0.45,0.03,0.54,0.25c0.11,0.24,0.27,0.44,0.52,0.54
			c-0.13-0.33-0.35-0.61-0.42-0.95c-0.04-0.28-0.23-0.51-0.3-0.78c0.17,0.09,0.32,0.21,0.46,0.34c0-0.08,0.01-0.25,0.02-0.33
			c0.16,0.07,0.29,0.21,0.44,0.31c-0.06-0.18-0.11-0.36-0.22-0.52c-0.21-0.24-0.58-0.28-0.74-0.58c0.26,0.02,0.53,0.29,0.78,0.09
			c0.04,0.03,0.11,0.08,0.15,0.1c-0.04-0.15-0.08-0.31-0.11-0.46c0.22,0.11,0.37,0.31,0.55,0.47c-0.11-0.32-0.32-0.6-0.41-0.92
			c0.41,0.21,0.84,0.53,0.86,1.03c0.06,0.2-0.13,0.28-0.25,0.39c0.01,0.35,0.31,0.57,0.53,0.79c-0.3,0.07-0.52-0.12-0.72-0.31
			c0.03,0.09,0.09,0.26,0.12,0.35c-0.08-0.01-0.25-0.03-0.33-0.04c0.09,0.24,0.33,0.48,0.21,0.75c-0.02,0.14-0.15,0.23-0.25,0.32
			c0.08,0.23,0.23,0.43,0.38,0.62c-0.23,0.07-0.46,0.01-0.68-0.08c0,0.07-0.02,0.21-0.02,0.29c-0.14-0.11-0.28-0.21-0.42-0.32
			c-0.06,0.22,0.07,0.55-0.22,0.62c0.01,0.14,0.01,0.28,0.01,0.42c-0.25-0.33-0.55-0.79-1.04-0.66c0.07,0.12,0.14,0.24,0.21,0.36
			c0.09-0.05,0.17-0.12,0.28-0.12c0.01,0.2-0.04,0.4-0.11,0.59c-0.19,0.09-0.37,0.18-0.56,0.26c-0.06,0.18-0.09,0.37-0.04,0.56
			c-0.03,0.02-0.09,0.07-0.11,0.09c-0.1-0.17-0.2-0.35-0.29-0.52c-0.03,0.2-0.05,0.41-0.09,0.61c-0.16-0.09-0.32-0.19-0.5-0.27
			c-0.06,0.22,0.12,0.42,0.17,0.63c-0.21-0.12-0.38-0.3-0.55-0.48c-0.09,0.04-0.17,0.09-0.26,0.13c-0.12-0.19-0.19-0.45-0.46-0.45
			c-0.05-0.11-0.1-0.23-0.15-0.34c-0.05,0.03-0.15,0.1-0.2,0.14c-0.03-0.11-0.05-0.21-0.08-0.32c-0.17,0.02-0.34,0.05-0.52,0.08
			c0.02-0.15,0.04-0.31,0.06-0.46c-0.14,0.15-0.26,0.31-0.41,0.45c0.06-0.2,0.13-0.4,0.2-0.6c-0.17,0.08-0.33,0.18-0.5,0.25
			c-0.15-0.06-0.23-0.22-0.35-0.33c0.04,0.13,0.08,0.25,0.11,0.38c-0.13-0.01-0.27-0.02-0.4-0.03c-0.02,0.19-0.07,0.37-0.1,0.56
			c0.06,0.02,0.17,0.07,0.23,0.1c-0.22,0.24-0.49,0.48-0.52,0.83c0.28,0,0.5-0.15,0.64-0.39c0.04,0.05,0.08,0.1,0.12,0.16
			c-0.06,0.14-0.12,0.27-0.18,0.4c0.07,0.18,0.22,0.36,0.17,0.57c-0.02,0.21-0.21,0.31-0.36,0.41c0-0.19,0.01-0.37,0.01-0.56
			c-0.06-0.02-0.19-0.06-0.26-0.09c-0.22-0.05-0.24,0.22-0.34,0.36c-0.22,0.08-0.52,0.08-0.61,0.34c0.01,0.24,0.23,0.39,0.34,0.59
			c-0.1,0.12-0.22,0.22-0.32,0.34c0.03,0.14,0.1,0.28,0.14,0.42c-0.2,0.02-0.4-0.01-0.61-0.03c-0.03,0.21,0.05,0.47-0.15,0.63
			c-0.16,0.19-0.42,0.18-0.64,0.18c0.25-0.32,0.28-0.72,0.31-1.11c0.04-0.31,0.35-0.42,0.62-0.46c-0.08-0.2-0.18-0.39-0.28-0.58
			c0.07-0.05,0.13-0.1,0.2-0.15c-0.04-0.1-0.08-0.2-0.12-0.3c0.13-0.18,0.37-0.21,0.56-0.3c-0.12-0.23-0.3-0.46-0.25-0.73
			c0.19,0.1,0.36,0.23,0.54,0.33c-0.02-0.15-0.04-0.3-0.06-0.45c0.1-0.16,0.22-0.31,0.31-0.47c-0.06-0.14-0.12-0.27-0.18-0.41
			c0.14,0.02,0.29,0.04,0.43,0.05c0.07-0.12,0.13-0.23,0.19-0.35c-0.17-0.2-0.4-0.31-0.65-0.37c-0.11-0.18-0.2-0.36-0.31-0.54
			c-0.1,0.17-0.15,0.35-0.21,0.53c-0.08-0.13-0.17-0.25-0.22-0.39c-0.01-0.29,0.12-0.56,0.19-0.83c-0.13,0.05-0.26,0.1-0.4,0.15
			c0.07-0.16,0.15-0.31,0.21-0.47c0.01-0.25-0.13-0.48-0.2-0.71c-0.09,0.25-0.14,0.51-0.21,0.76c-0.3-0.24-0.27-0.65-0.21-0.99
			c-0.12-0.06-0.24-0.14-0.36-0.21c0.22-0.03,0.42-0.14,0.41-0.39c0.14-0.29-0.05-0.57-0.01-0.87c-0.06-0.15-0.11-0.3-0.16-0.45
			C56.64,26.9,56.73,26.91,56.81,26.93z M61.05,29.48c0.11-0.1,0.21-0.19,0.33-0.29c0.1,0.09,0.2,0.18,0.29,0.28
			c-0.11,0.08-0.23,0.17-0.35,0.24c0.12,0.07,0.24,0.14,0.36,0.2c0.05-0.16,0.07-0.33,0.11-0.5c0.09,0.17,0.17,0.34,0.26,0.51
			c0.16-0.1,0.31-0.2,0.46-0.31c-0.11-0.01-0.32-0.03-0.43-0.04c-0.1-0.22,0.1-0.34,0.28-0.42c0.07,0.09,0.13,0.19,0.2,0.28
			c0.14-0.16,0.26-0.48-0.02-0.57c-0.39,0.04-0.78,0.02-1.16-0.02C61.06,28.88,61.01,29.23,61.05,29.48z M61.26,30.87
			c-0.13,0.1-0.26,0.2-0.38,0.31c-0.03,0.17-0.02,0.37,0.2,0.36c0.03,0.12,0.06,0.25,0.09,0.37c0.03-0.07,0.09-0.22,0.12-0.29
			c0.07,0.11,0.13,0.21,0.2,0.32c0.04-0.03,0.12-0.1,0.16-0.13c0.1,0.13,0.2,0.26,0.3,0.39c0.07-0.11,0.14-0.22,0.23-0.33
			c0.05,0.04,0.15,0.11,0.2,0.15c0.04-0.03,0.11-0.09,0.14-0.12c0.06,0.01,0.17,0.04,0.23,0.06c0.01-0.21,0.01-0.43,0.02-0.64
			c0.1,0.11,0.19,0.23,0.28,0.35c0.09-0.08,0.18-0.16,0.28-0.23c0-0.1-0.01-0.2-0.01-0.29c-0.16-0.11-0.32-0.22-0.49-0.31
			c-0.09,0.05-0.18,0.1-0.27,0.16c-0.2-0.15-0.45-0.18-0.69-0.22C61.66,30.84,61.47,30.98,61.26,30.87z M59.54,30.87
			c-0.09,0.25-0.15,0.52-0.09,0.79C59.66,31.44,59.71,31.13,59.54,30.87z"/>
	</g>
	<path class="st4" d="M63,26.65c0.42-0.15,0.82,0.13,1.24,0.2c0.01,0.06,0.04,0.18,0.05,0.24c0.27,0.06,0.55,0.13,0.71,0.37
		c-0.21,0.03-0.5-0.11-0.62,0.15c-0.26-0.22-0.47-0.5-0.74-0.71C63.43,26.8,63.21,26.74,63,26.65z"/>
	<path class="st4" d="M58.21,27.96c0.03-0.47,0.33-0.84,0.61-1.18c0.16,0.13,0.03,0.32,0.01,0.49c0.13-0.01,0.27-0.01,0.4-0.02
		c-0.11,0.11-0.22,0.21-0.33,0.31c-0.21,0.17-0.19,0.48-0.35,0.68c-0.03-0.15-0.05-0.31-0.07-0.46
		C58.41,27.83,58.28,27.91,58.21,27.96z"/>
	<path class="st4" d="M65.3,31.16c0.11,0.12,0.22,0.24,0.33,0.36c0.1-0.03,0.2-0.05,0.3-0.08c0.03,0.04,0.09,0.12,0.11,0.16
		c0,0.04-0.02,0.11-0.02,0.15c-0.04,0.05-0.13,0.16-0.18,0.21c0.1,0.01,0.3,0.03,0.4,0.03c-0.01,0.19-0.06,0.37-0.11,0.54
		c-0.06,0.03-0.17,0.08-0.23,0.11c0.12,0.03,0.24,0.05,0.37,0.08c-0.02,0.06-0.07,0.2-0.09,0.26c0.05,0.02,0.15,0.05,0.2,0.07
		c0,0.06,0,0.19,0,0.25c0.27,0.14,0.65,0.35,0.54,0.71c-0.09-0.03-0.28-0.08-0.38-0.11c0.13,0.14,0.1,0.31,0.06,0.48
		c0.16,0.06,0.33,0.09,0.49,0.13c-0.03,0.05-0.08,0.14-0.1,0.19c-0.22,0.06-0.45,0.13-0.66-0.01c-0.21-0.09-0.23-0.34-0.27-0.53
		c-0.2-0.02-0.38-0.09-0.53-0.23c0.25-0.05,0.56-0.15,0.53-0.47c-0.08-0.02-0.25-0.07-0.33-0.09c0.01-0.06,0.04-0.18,0.05-0.24
		c-0.13-0.06-0.25-0.13-0.38-0.19c0.04-0.05,0.12-0.14,0.16-0.19c-0.18-0.1-0.41-0.17-0.47-0.39c-0.04-0.14,0.05-0.27,0.09-0.4
		c0.11,0.14,0.22,0.27,0.34,0.4c0.05-0.05,0.14-0.15,0.18-0.2C65.42,31.9,65.2,31.55,65.3,31.16z"/>
	<path class="st4" d="M66.79,34.95c0.25,0.02,0.56-0.02,0.74,0.2c0.15,0.12,0.18,0.32,0.21,0.5c-0.05,0-0.14-0.01-0.19-0.02
		c0.19,0.42,0,0.92,0.26,1.31c0.19,0.36,0.18,0.78,0.14,1.18c0.11,0.12,0.22,0.24,0.32,0.36c-0.17,0.03-0.35,0.05-0.52,0.08
		c0.13,0.46-0.21,0.86-0.19,1.31c-0.02,0.27,0.15,0.5,0.24,0.75c-0.43,0.01-0.69-0.47-0.61-0.85c0.03-0.14-0.03-0.22-0.18-0.26
		c0.04-0.14,0.07-0.28,0.1-0.41c-0.12-0.33-0.37-0.63-0.3-1.01c0.04,0.01,0.13,0.03,0.17,0.03c0.06,0.15,0.12,0.3,0.2,0.44
		c0.03-0.19,0.05-0.37,0.08-0.56c0.11,0.1,0.22,0.2,0.33,0.3c-0.01-0.36-0.09-0.74-0.39-0.96c-0.31-0.24-0.66-0.57-0.52-1.02
		c0.16,0.23,0.35,0.44,0.6,0.58c-0.09-0.27-0.16-0.55-0.02-0.82c-0.04-0.28-0.12-0.55-0.14-0.83
		C66.99,35.14,66.89,35.05,66.79,34.95z"/>
	<path class="st4" d="M62.81,36c0.32,0.12,0.52,0.43,0.47,0.78c0.08,0.29-0.26,0.48-0.17,0.75c0.12-0.06,0.24-0.12,0.36-0.17
		c-0.06,0.17-0.14,0.34-0.22,0.5c0.03,0.16,0.06,0.31,0.07,0.47c-0.08,0.32-0.35,0.54-0.43,0.85c0.01,0.17,0.05,0.34,0.07,0.51
		c-0.13-0.11-0.3-0.22-0.33-0.4c-0.09-0.25,0.07-0.5,0.17-0.72c-0.21,0-0.44,0.08-0.62-0.06c0.29-0.14,0.61-0.3,0.71-0.63
		c-0.14-0.11-0.28-0.21-0.4-0.33c-0.06-0.36,0.35-0.55,0.45-0.87C62.94,36.45,62.86,36.23,62.81,36z"/>
	<path class="st4" d="M56.4,36.86c0.14-0.06,0.28-0.1,0.42-0.14c-0.02,0.13-0.04,0.26-0.07,0.39c0.18,0.07,0.33,0.18,0.4,0.37
		c-0.13,0.14-0.38,0.23-0.37,0.44c0.09,0.19,0.27,0.28,0.43,0.41c-0.05,0.18-0.12,0.37-0.18,0.55c0.09,0.1,0.18,0.21,0.26,0.31
		c-0.13,0.17-0.3,0.31-0.42,0.48c0.06,0.32,0.39,0.52,0.51,0.82c-0.54,0.09-1.07-0.6-0.81-1.09c0.09-0.15,0.02-0.33,0-0.5
		c0.06-0.07,0.11-0.13,0.17-0.2c-0.2-0.08-0.41-0.14-0.57-0.3c0.05-0.1,0.1-0.19,0.16-0.29c-0.1-0.11-0.21-0.22-0.3-0.34
		c0.12-0.14,0.25-0.28,0.37-0.42C56.4,37.2,56.38,37.03,56.4,36.86z"/>
	<path class="st4" d="M55.66,41.54c0.25-0.42,0.46-1.03,1.02-1.1c-0.01,0.26-0.06,0.52-0.08,0.78c-0.12,0.06-0.24,0.11-0.34,0.19
		c0.02,0.2,0.18,0.33,0.3,0.48c-0.2,0.09-0.42,0.15-0.6,0.28c-0.11,0.19-0.11,0.42-0.17,0.64c-0.08,0.21-0.24,0.39-0.35,0.59
		c0.24,0.32-0.08,0.59-0.21,0.88c0.06,0.06,0.18,0.18,0.24,0.23c-0.26,0.22-0.72,0.24-0.8,0.62c0.02,0.18,0.12,0.35,0.19,0.52
		c-0.23,0.09-0.51,0.2-0.56,0.49c-0.03,0.29,0.01,0.59,0.02,0.88c-0.05,0.06-0.11,0.12-0.16,0.19c0.11,0.3-0.05,0.63,0.11,0.91
		c0.14,0.2-0.08,0.36-0.19,0.51c-0.25,0.26-0.24,0.67-0.14,1c0.16,0.06,0.32,0.09,0.48,0.14c-0.04,0.19-0.18,0.33-0.26,0.49
		c0.22,0.08,0.45,0.08,0.67,0.1c-0.17,0.24-0.35,0.5-0.4,0.8c-0.09,0.34,0.07,0.7,0.32,0.94c0.17-0.07,0.34-0.13,0.52-0.15
		c-0.01,0.28-0.19,0.48-0.35,0.69c0.14,0.04,0.28,0.09,0.42,0.13c0.07,0.11,0.13,0.22,0.2,0.33c0.11-0.04,0.21-0.08,0.32-0.12
		c0.17,0.17,0.46,0.23,0.55,0.45c-0.57,0.12-1.15,0-1.72-0.07c-0.33-0.04-0.45-0.38-0.55-0.64c-0.18-0.15-0.38-0.33-0.37-0.59
		c0.02-0.29,0.06-0.59-0.06-0.87c0.07-0.21,0.26-0.41,0.18-0.65c-0.11-0.34-0.34-0.63-0.41-0.98c-0.02-0.19,0-0.38,0.01-0.57
		c-0.1-0.16-0.19-0.38-0.07-0.56c0.14-0.22,0.22-0.46,0.19-0.72c0.07-0.11,0.15-0.21,0.22-0.31c-0.06-0.1-0.37-0.18-0.22-0.31
		c0.27-0.27,0.1-0.66,0.16-1c0.02-0.36,0.25-0.66,0.4-0.97c0.04-0.22,0-0.46,0.1-0.66c0.11-0.32,0.51-0.43,0.65-0.72
		c0-0.42,0.21-0.79,0.4-1.15c0.17-0.32-0.2-0.64-0.08-0.96C55.38,41.61,55.52,41.58,55.66,41.54z"/>
	<path class="st4" d="M67.16,40.46c0.14,0.3,0.36,0.55,0.51,0.85c0.04,0.26,0.03,0.53-0.11,0.76c-0.06-0.03-0.19-0.08-0.25-0.11
		c-0.04,0.06-0.07,0.12-0.11,0.18c0.14,0.08,0.29,0.15,0.44,0.22c-0.2,0.26,0.15,0.43,0.16,0.69c0.04,0.27-0.02,0.55-0.09,0.81
		c0.11,0.09,0.21,0.19,0.32,0.28c-0.12,0.02-0.25,0.04-0.37,0.06c0.06,0.31-0.09,0.59-0.14,0.88c0,0.24,0.21,0.38,0.38,0.51
		c-0.08,0.08-0.16,0.15-0.23,0.23c0.11,0.24,0.27,0.45,0.53,0.55c-0.12,0.15-0.28,0.27-0.45,0.36c0.15,0.27,0.38,0.53,0.37,0.86
		c0,0.18,0.06,0.36,0.14,0.52c-0.06,0.19-0.25,0.37-0.19,0.59c0.21,0.11,0.4-0.09,0.6-0.14c0.12,0.32-0.09,0.59-0.21,0.87
		c0.07,0.3,0.29,0.56,0.24,0.9c0.12,0.02,0.24,0.04,0.36,0.07c-0.17,0.18-0.47,0.29-0.46,0.58c-0.08,0.39,0.27,0.65,0.41,0.97
		c-0.05,0.1-0.1,0.19-0.15,0.28c0.34,0.2,0.65,0.5,0.59,0.93c-0.13-0.01-0.27-0.01-0.4-0.01c0.03,0.25,0.28,0.21,0.47,0.23
		c0.03,0.13,0.04,0.25,0.06,0.38c0.22,0.24,0.43,0.56,0.29,0.89c-0.03,0.23-0.25,0.33-0.45,0.39c-0.16,0.12-0.31,0.24-0.48,0.35
		c-0.07-0.08-0.13-0.16-0.19-0.23c-0.37,0.08-0.76,0.05-1.13,0.13c-0.19,0.05-0.36-0.05-0.54-0.09c-0.23-0.08-0.53-0.09-0.67-0.34
		c-0.15-0.29-0.45-0.43-0.67-0.64c-0.05,0.02-0.15,0.06-0.2,0.08c0.02-0.47-0.22-0.88-0.43-1.29c-0.08,0.05-0.16,0.1-0.24,0.15
		c-0.11-0.24-0.25-0.52-0.12-0.78c0.12-0.25,0.22-0.52,0.06-0.78c-0.17-0.01-0.34-0.02-0.5-0.03c0.01-0.15,0.04-0.3,0.04-0.45
		c-0.18,0.06-0.36,0.15-0.54,0.22c0.01,0.2,0,0.41,0.1,0.59c0.14,0.24,0.01,0.52,0.03,0.79c0.09,0.19,0.29,0.27,0.44,0.4
		c-0.15,0.18-0.36,0.25-0.59,0.27c0.09,0.08,0.18,0.16,0.27,0.25c-0.01,0.12-0.17,0.15-0.23,0.23c0.1,0.15,0.27,0.29,0.21,0.49
		c-0.05,0.23-0.03,0.47,0.01,0.7c-0.44-0.12-0.39-0.59-0.51-0.94c-0.08-0.22-0.06-0.46-0.07-0.69c-0.07-0.03-0.2-0.08-0.27-0.11
		c0.33-0.14,0.06-0.46,0.15-0.71c0.13,0.17,0.27,0.33,0.41,0.49c-0.17-0.51-0.28-1.05-0.22-1.6c-0.07,0.01-0.22,0.03-0.3,0.04
		c0.03-0.12,0.05-0.25,0.06-0.37c-0.11-0.05-0.21-0.12-0.3-0.19c-0.08-0.21,0.05-0.41,0.11-0.61c0.16,0.2,0.33,0.69,0.66,0.47
		c0.04-0.3-0.36-0.44-0.5-0.69c0.08-0.02,0.25-0.07,0.34-0.1c-0.07-0.18-0.17-0.35-0.23-0.53c0.06-0.1,0.14-0.19,0.21-0.28
		c-0.26-0.26-0.44-0.61-0.35-0.98c-0.12-0.07-0.25-0.13-0.37-0.22c-0.07-0.27,0.03-0.55,0.03-0.82c-0.12-0.09-0.29-0.15-0.33-0.3
		c0.04-0.3,0.37-0.58,0.19-0.88c-0.15-0.15-0.38-0.18-0.57-0.26c0.02-0.2,0.07-0.39,0.07-0.59c-0.12-0.32-0.49-0.51-0.45-0.88
		c0.07,0.05,0.22,0.15,0.3,0.21c0.05-0.02,0.14-0.07,0.19-0.09c0.01-0.28-0.18-0.47-0.41-0.6c0.19-0.14,0.25-0.35,0.23-0.58
		c-0.09-0.05-0.18-0.1-0.28-0.16c0-0.07-0.01-0.2-0.02-0.27c-0.15,0.06-0.31,0.11-0.47,0.15c0.04-0.25,0.25-0.42,0.36-0.63
		c0.06-0.21,0.07-0.44,0.12-0.65c0.09,0.15,0.16,0.3,0.26,0.45c0.2,0.09,0.62,0.03,0.5,0.37c-0.13,0.06-0.26,0.12-0.39,0.17
		c0.14,0.1,0.28,0.2,0.42,0.31c-0.06,0.02-0.17,0.06-0.22,0.07c0.04,0.19,0.06,0.39,0.09,0.58c0.14-0.07,0.28-0.15,0.43-0.21
		c-0.03,0.18-0.08,0.36-0.15,0.53c0.06,0.04,0.12,0.07,0.18,0.11c-0.12,0.14-0.21,0.3-0.26,0.49c0.16-0.02,0.32-0.05,0.48-0.07
		c0.06-0.2,0.1-0.4,0.19-0.59c0.15-0.08,0.15,0.18,0.24,0.24c0.25-0.2,0.41-0.49,0.52-0.78c0.03-0.25,0.08-0.51,0.2-0.73
		c-0.23-0.14-0.47-0.27-0.62-0.5c0.17,0.02,0.34,0.04,0.51,0.06c0.14-0.44,0.48-1.06,1.03-0.8c-0.22,0.18-0.51,0.32-0.59,0.62
		c-0.12,0.27,0.04,0.54,0.16,0.78c-0.05,0.03-0.16,0.1-0.22,0.14c0.02,0.18,0.07,0.36,0.03,0.55c-0.16,0.19-0.37,0.36-0.47,0.59
		c0.12,0.04,0.25,0.09,0.37,0.14c-0.17,0.1-0.39,0.2-0.39,0.43c0,0.39-0.18,0.74-0.4,1.05c0.21-0.1,0.44-0.15,0.68-0.1
		c-0.15,0.19-0.32,0.36-0.47,0.55c0.08-0.01,0.24-0.02,0.31-0.03c0.03,0.35-0.08,0.68-0.31,0.94c0.09,0.01,0.27,0.04,0.36,0.06
		c-0.05,0.15-0.1,0.3-0.15,0.44c0.13,0.08,0.27,0.16,0.4,0.24c-0.11,0.04-0.23,0.07-0.34,0.11c0.12,0.15,0.24,0.3,0.35,0.46
		c-0.13-0.01-0.25-0.03-0.38-0.04c-0.03,0.04-0.1,0.13-0.14,0.17c0.02,0.07,0.07,0.2,0.09,0.27c0.16,0.03,0.33,0.05,0.49,0.08
		c-0.06,0.11-0.13,0.22-0.19,0.33c0.07,0.02,0.21,0.06,0.27,0.07c-0.03,0.17,0.06,0.41-0.14,0.51c-0.17,0.1-0.35,0.17-0.52,0.28
		c0.12,0.06,0.25,0.11,0.38,0.17c-0.08,0.13-0.17,0.26-0.25,0.39c0.19-0.05,0.38-0.2,0.57-0.1c0.05,0.09,0.1,0.19,0.14,0.29
		c-0.06,0.18-0.11,0.37-0.15,0.56c0.12-0.1,0.23-0.21,0.34-0.32c0.09,0.2,0.21,0.41,0.19,0.64c0.01,0.31-0.2,0.56-0.31,0.84
		c0.1-0.08,0.21-0.16,0.32-0.24c0.02,0.15,0.03,0.31,0.04,0.47c0.04,0.04,0.12,0.13,0.16,0.18c0.08-0.16,0.15-0.33,0.23-0.49
		c0.32,0.3,0.08,0.7,0,1.05c0.07-0.01,0.2-0.04,0.27-0.06c0.03,0.18,0.07,0.35,0.11,0.53c0.06,0,0.18-0.01,0.25-0.02
		c0.11,0.24,0.36,0.37,0.44,0.63c0.07-0.03,0.14-0.06,0.21-0.1c0.15,0.03,0.31,0.05,0.46,0.06c-0.01-0.19-0.04-0.37-0.06-0.56
		c0.1,0.07,0.2,0.14,0.3,0.21c0-0.19,0-0.37,0-0.55c0.24,0.23,0.24,0.58,0.24,0.89c0.16,0.03,0.33,0.06,0.49,0.09
		c0.01-0.23-0.09-0.45-0.14-0.67c0.29,0.12,0.45,0.4,0.64,0.64c0.01-0.11,0.03-0.32,0.03-0.42c0.17,0.09,0.35,0.18,0.53,0.26
		c-0.03-0.18,0.04-0.44-0.18-0.52c-0.3-0.14-0.49-0.42-0.75-0.62c0.14-0.18,0.37-0.41,0.19-0.64c-0.06-0.03-0.2-0.08-0.26-0.11
		c-0.01-0.17-0.02-0.34-0.02-0.51c-0.11-0.05-0.21-0.1-0.32-0.15c0.06-0.19,0.19-0.37,0.19-0.58c-0.04-0.12-0.12-0.23-0.18-0.34
		c-0.12,0.01-0.24,0.01-0.35,0.02c0.09-0.24,0.13-0.49,0.11-0.74c0.11,0.07,0.22,0.14,0.33,0.21c-0.07-0.19-0.17-0.37-0.26-0.55
		c-0.2-0.32,0.03-0.78-0.28-1.05c-0.19-0.24-0.59-0.45-0.46-0.82c0.17,0.08,0.33,0.2,0.53,0.16c-0.12-0.17-0.25-0.33-0.38-0.49
		c0.07-0.04,0.22-0.11,0.29-0.15c-0.19-0.14-0.39-0.26-0.57-0.42c-0.01-0.14,0.12-0.24,0.16-0.37c-0.05-0.16-0.13-0.3-0.18-0.46
		c0.08,0,0.23,0.01,0.31,0.01c-0.1-0.08-0.2-0.17-0.3-0.25c0.01-0.2,0.03-0.4,0.05-0.61c-0.07,0.03-0.2,0.08-0.27,0.11
		c0.03-0.26,0.19-0.54,0.04-0.79c-0.11-0.21-0.27-0.38-0.36-0.6c0.19,0.04,0.37,0.13,0.52,0.25c0.06-0.14,0.17-0.23,0.32-0.27
		c-0.23-0.34-0.64-0.76-0.35-1.19c0.1,0.22,0.15,0.5,0.43,0.56c-0.12-0.36-0.14-0.86-0.55-1.03c-0.18-0.34-0.06-0.7,0.07-1.03
		C67.02,41.09,67.03,40.76,67.16,40.46z"/>
	<path class="st4" d="M57.72,42.65c0.34-0.17,0.55-0.48,0.77-0.78c0.06,0.24-0.02,0.47-0.13,0.68c0.09-0.02,0.26-0.05,0.35-0.06
		c0.01,0.22,0.06,0.44,0.1,0.66c-0.02,0.27-0.19,0.49-0.29,0.73c0.12-0.01,0.24-0.02,0.37-0.03c0.01,0.07,0.02,0.2,0.02,0.26
		c0.31,0.24-0.06,0.48-0.21,0.69c0.13,0.07,0.25,0.13,0.38,0.2c-0.1,0.21-0.22,0.4-0.39,0.57c0.07,0.02,0.2,0.06,0.27,0.08
		c-0.03,0.11-0.06,0.22-0.09,0.33c0.04,0.08,0.08,0.16,0.13,0.24c-0.06,0.09-0.12,0.18-0.18,0.27c0.2,0.24,0.3,0.6,0.09,0.87
		c-0.14,0.27-0.59,0.31-0.71,0.01c0.14-0.11,0.35-0.16,0.39-0.35c-0.07-0.17-0.22-0.3-0.26-0.48c0.04-0.17,0.1-0.34,0.15-0.51
		c-0.16,0.05-0.32,0.09-0.49,0.13c-0.03-0.07-0.1-0.21-0.14-0.29c-0.2,0.06-0.43,0.25-0.64,0.12c0.01-0.16,0.11-0.32,0.07-0.47
		c-0.12-0.17-0.34-0.25-0.55-0.27c-0.15,0.06-0.29,0.14-0.44,0.2c0.04-0.2,0.09-0.42,0.24-0.57c0.34-0.07,0.69-0.02,1.04-0.05
		c0-0.18-0.01-0.36-0.02-0.54c0.04,0,0.13,0.01,0.17,0.01c0.07,0.21,0.13,0.58,0.44,0.49c0.18-0.23-0.05-0.45-0.1-0.67
		c0.03-0.13,0.09-0.26,0.13-0.38c-0.14-0.06-0.29-0.11-0.41-0.21c0.22-0.07,0.44-0.15,0.58-0.35
		C58.13,43.02,57.91,42.85,57.72,42.65z"/>
	<path class="st4" d="M66.38,47.05c0.04,0,0.11,0,0.14,0c0.09,0.44,0.13,0.92,0.51,1.23c-0.03,0.04-0.11,0.13-0.14,0.18
		c0.13,0.37,0.01,0.75-0.05,1.12c0.12-0.08,0.24-0.16,0.36-0.23c-0.04,0.14-0.09,0.27-0.14,0.4c0.35,0.12,0.7,0.37,0.62,0.8
		c-0.19-0.12-0.35-0.28-0.52-0.43c0.31,0.47,0.05,1.04,0.29,1.54c-0.15-0.04-0.35-0.03-0.42-0.21c-0.11-0.29,0.06-0.59,0.06-0.88
		c-0.07-0.12-0.18-0.21-0.27-0.31c-0.03-0.07-0.08-0.21-0.11-0.28c-0.05,0.13-0.1,0.27-0.16,0.4c-0.33-0.52,0.01-1.14,0.03-1.69
		c-0.1-0.27-0.21-0.54-0.32-0.8C66.38,47.61,66.41,47.33,66.38,47.05z"/>
	<path class="st4" d="M58.08,48.37c0.11-0.2,0.23-0.4,0.29-0.63c0.2,0.01,0.4,0.02,0.6,0c0.05,0.14,0.14,0.26,0.17,0.41
		c-0.06,0.13-0.12,0.25-0.17,0.38c0.14,0.07,0.29,0.12,0.43,0.2c0.04,0.31-0.44,0.56-0.18,0.86c0.12-0.08,0.25-0.16,0.37-0.25
		c-0.03,0.2-0.1,0.39-0.19,0.57c0.25,0.39,0.15,0.85,0.07,1.27c0.2-0.13,0.35-0.32,0.5-0.51c0.25,0.34,0.02,0.74-0.14,1.06
		c0.19-0.05,0.38-0.11,0.57-0.16c0,0.21-0.05,0.41-0.21,0.55c0,0.22,0.01,0.43,0.01,0.65c0.08-0.05,0.23-0.15,0.31-0.2
		c-0.14,0.43-0.27,0.86-0.42,1.28c-0.07,0.12,0.06,0.22,0.12,0.31c0.12-0.09,0.23-0.2,0.36-0.29c-0.01,0.21-0.06,0.41-0.11,0.6
		c0.14-0.09,0.28-0.18,0.42-0.27c0.01,0.25,0,0.5-0.03,0.75c0.2,0.03,0.4,0.07,0.61,0.08c0.12,0.05,0.3,0.25,0.4,0.07
		c0.17-0.2,0.05-0.49,0.08-0.72c0.3,0.11,0.32,0.41,0.36,0.67c0.13,0.03,0.26,0.05,0.39,0.08c0.03-0.14,0.06-0.28,0.1-0.42
		c0.19,0.02,0.19,0.26,0.29,0.39c0.05-0.11,0.11-0.22,0.16-0.34c0.11,0.1,0.21,0.24,0.39,0.16c0.18-0.03,0.27,0.19,0.4,0.28
		c-0.35,0.16-0.72,0.29-1.08,0.42c-0.28,0-0.56-0.02-0.84-0.01c-0.04,0.05-0.11,0.15-0.15,0.2c-0.13-0.09-0.24-0.19-0.35-0.3
		c-0.14,0.03-0.27,0.06-0.41,0.1c-0.33-0.14-0.66-0.31-0.9-0.59c-0.06,0-0.18-0.01-0.24-0.01c-0.12-0.37-0.33-0.71-0.49-1.06
		c0.09-0.12,0.17-0.24,0.26-0.37c-0.07-0.07-0.13-0.13-0.2-0.2c0.07-0.2,0.14-0.41,0.2-0.61c-0.19,0.16-0.42,0.18-0.65,0.1
		c-0.12,0.04-0.24,0.09-0.36,0.13c-0.02,0.04-0.07,0.11-0.09,0.15c-0.24,0-0.46,0.09-0.65,0.24c-0.27,0.25-0.61-0.04-0.93-0.01
		c-0.27,0.02-0.49-0.13-0.66-0.32c0.14-0.08,0.28-0.16,0.43-0.24c-0.01-0.19-0.02-0.37-0.02-0.56c0.31,0.2,0.5,0.52,0.71,0.8
		c0.07-0.3,0.16-0.61,0.15-0.92c0.25,0.2,0.47,0.43,0.7,0.64c0.22-0.07,0.24-0.31,0.32-0.49c0.1-0.11,0.23-0.19,0.34-0.29
		c-0.17,0.03-0.34,0.08-0.51,0.12c0.06-0.15,0.12-0.3,0.18-0.45c-0.05,0-0.16-0.01-0.22-0.01c-0.06,0.13-0.12,0.26-0.18,0.39
		c-0.13-0.23-0.1-0.48-0.03-0.72c-0.15-0.14-0.29-0.28-0.39-0.46c0.16-0.06,0.35-0.05,0.46-0.2c0.02-0.26-0.39-0.31-0.35-0.58
		c0.04-0.12,0.13-0.22,0.19-0.32c-0.14-0.1-0.36-0.16-0.35-0.36c-0.05-0.24,0.23-0.39,0.26-0.61
		C58.14,48.67,58.09,48.53,58.08,48.37z"/>
	<path class="st4" d="M60.9,48.63c0.55,0.04,0.5,0.67,0.56,1.07c0.13-0.06,0.25-0.12,0.38-0.18c-0.01,0.31-0.1,0.6-0.2,0.89
		c0.07,0,0.21-0.01,0.28-0.01c-0.01,0.08-0.03,0.24-0.04,0.33c0.52,0.24,0.51,0.98,0.16,1.36c0.01-0.34,0.07-0.77-0.33-0.91
		c-0.07,0.27,0.06,0.52,0.15,0.77c-0.33-0.19-0.5-0.56-0.48-0.92c-0.16,0.01-0.31,0.02-0.47,0.01c-0.03-0.16,0.14-0.22,0.23-0.32
		c0.17-0.12,0.21-0.33,0.2-0.53c-0.14-0.15-0.46-0.22-0.41-0.47c0.04-0.2,0.13-0.39,0.19-0.58C61.04,48.97,60.96,48.8,60.9,48.63z"
		/>
	<path class="st4" d="M56.47,51.02c0.03-0.26,0.08-0.52,0.18-0.76c0.09,0.15,0.18,0.3,0.28,0.44c0.05,0.01,0.14,0.02,0.19,0.03
		c0.06,0.09,0.13,0.17,0.2,0.25c0.19,0.01,0.38-0.03,0.57-0.03c-0.03,0.2-0.11,0.49-0.37,0.48c-0.26,0.06-0.61-0.13-0.8,0.12
		c-0.14,0.11-0.14,0.29-0.16,0.45c-0.17,0.11-0.23,0.31-0.34,0.47c-0.13,0.06-0.27,0.09-0.4,0.12c0.09-0.39-0.15-0.83,0.17-1.14
		c-0.06-0.14-0.12-0.28-0.17-0.41C56.03,51.03,56.25,51.02,56.47,51.02z"/>
	<path class="st4" d="M61.22,52.21c0.34,0.11,0.44,0.5,0.63,0.76c0.09-0.08,0.18-0.16,0.28-0.24c0.07,0.06,0.14,0.13,0.21,0.19
		c0.31-0.12,0.67-0.11,0.85,0.21c-0.07,0.01-0.2,0.02-0.27,0.03c0.12,0.22,0.25,0.45,0.21,0.71c-0.15-0.12-0.26-0.27-0.41-0.39
		c-0.2,0.06-0.38,0.16-0.58,0.2c-0.02-0.15-0.03-0.31-0.05-0.46c-0.18,0.04-0.35,0.1-0.51,0.17c-0.18-0.12-0.38-0.22-0.58-0.3
		c0.13-0.03,0.26-0.05,0.39-0.09C61.54,52.73,61.31,52.46,61.22,52.21z"/>
	<path class="st4" d="M67.09,52.2c0.11,0.19,0.2,0.4,0.31,0.59c0.24-0.11,0.48-0.3,0.77-0.25c-0.1,0.1-0.2,0.18-0.3,0.27
		c0.25,0.02,0.49,0.11,0.64,0.32c-0.16,0.02-0.31,0.02-0.47,0.01c-0.01,0.05-0.03,0.14-0.05,0.19c-0.49-0.26-1.02,0.16-1.31,0.54
		c-0.03-0.25,0.09-0.47,0.22-0.67c-0.14,0.05-0.28,0.1-0.42,0.15c0.03-0.32,0.37-0.39,0.61-0.51C67.08,52.62,67.08,52.41,67.09,52.2
		z"/>
</g>
<ellipse id="XMLID_17_" class="st9" cx="115.94" cy="64.95" rx="1.1" ry="1.19"/>
<text id="XMLID_18_" transform="matrix(0.9219 0 0 1 115.4808 65.5399)" class="st4 st10 st11">R</text>
</svg>
