<svg xmlns="http://www.w3.org/2000/svg" xmlns:xlink="http://www.w3.org/1999/xlink" width="500" zoomAndPan="magnify" viewBox="0 0 375 374.999991" height="500" preserveAspectRatio="xMidYMid meet" version="1.0"><defs><clipPath id="cd88b7ef69"><path d="M 16.910156 30.476562 L 358.089844 30.476562 L 358.089844 344.425781 L 16.910156 344.425781 Z M 16.910156 30.476562 " clip-rule="nonzero"/></clipPath></defs><rect x="-37.5" width="450" fill="#ffffff" y="-37.499999" height="449.999989" fill-opacity="1"/><rect x="-37.5" width="450" fill="#fafeff" y="-37.499999" height="449.999989" fill-opacity="1"/><g clip-path="url(#cd88b7ef69)"><path fill="#186c91" d="M 247.683594 231.417969 L 297.421875 99.992188 L 347.183594 231.417969 Z M 27.8125 231.386719 L 77.550781 99.992188 L 127.316406 231.386719 Z M 358.058594 231.417969 L 352.457031 231.417969 L 300.570312 94.328125 C 300.8125 94.238281 301.085938 94.207031 301.328125 94.113281 C 302.539062 93.601562 303.539062 92.753906 304.265625 91.902344 C 305.054688 90.933594 305.597656 89.933594 305.992188 88.9375 C 306.144531 88.632812 306.234375 88.269531 306.234375 87.875 C 306.234375 86.390625 305.054688 85.210938 303.570312 85.210938 C 302.476562 85.210938 301.539062 85.875 301.144531 86.847656 C 300.84375 87.421875 300.507812 87.9375 300.175781 88.269531 C 299.480469 88.9375 299.054688 88.996094 298.207031 88.90625 C 296.359375 88.632812 293.785156 86.753906 291.664062 84.726562 C 289.605469 82.785156 287.304688 80.03125 284.667969 77.730469 C 282.152344 75.367188 279.214844 73.304688 276.125 71.488281 C 273.035156 69.703125 269.613281 68.371094 266.101562 67.460938 C 259.011719 65.734375 251.773438 66.21875 245.414062 67.582031 C 238.960938 68.882812 233.175781 70.882812 227.785156 72.699219 C 222.421875 74.546875 217.457031 76.304688 212.914062 77.699219 C 206.703125 79.636719 201.25 80.847656 196.738281 81.546875 L 196.738281 63.824219 C 200.25 62.492188 202.371094 60.34375 203.070312 57.40625 C 205.339844 47.4375 189.042969 31.929688 188.347656 31.296875 L 187.5 30.507812 L 186.652344 31.296875 C 185.953125 31.960938 169.660156 47.4375 171.929688 57.433594 C 172.628906 60.371094 174.746094 62.523438 178.292969 63.824219 L 178.292969 81.546875 C 173.75 80.847656 168.296875 79.636719 162.085938 77.699219 C 157.542969 76.304688 152.605469 74.546875 147.214844 72.699219 C 141.824219 70.914062 136.039062 68.882812 129.617188 67.582031 C 123.226562 66.25 115.988281 65.765625 108.898438 67.492188 C 105.386719 68.371094 101.992188 69.703125 98.871094 71.488281 C 95.785156 73.304688 92.84375 75.367188 90.332031 77.757812 C 87.695312 80.03125 85.394531 82.785156 83.335938 84.753906 C 81.214844 86.753906 78.640625 88.632812 76.824219 88.90625 C 75.945312 89.027344 75.550781 88.9375 74.855469 88.269531 C 74.488281 87.9375 74.15625 87.453125 73.882812 86.875 C 73.460938 85.90625 72.519531 85.210938 71.429688 85.210938 C 69.945312 85.210938 68.765625 86.390625 68.765625 87.875 C 68.765625 88.269531 68.855469 88.632812 69.007812 88.964844 C 69.402344 89.933594 69.945312 90.933594 70.734375 91.902344 C 71.460938 92.78125 72.460938 93.601562 73.671875 94.113281 C 73.914062 94.207031 74.1875 94.238281 74.429688 94.328125 L 22.542969 231.386719 L 16.910156 231.386719 L 16.910156 231.417969 C 16.910156 239.957031 19.789062 260.070312 77.550781 260.070312 C 135.339844 260.070312 138.21875 239.957031 138.21875 231.417969 L 132.554688 231.417969 L 80.546875 93.964844 C 81.488281 93.601562 82.367188 93.175781 83.183594 92.722656 C 84.820312 91.78125 86.242188 90.722656 87.605469 89.601562 C 90.421875 87.210938 92.453125 85.027344 94.90625 83.152344 C 97.269531 81.179688 99.871094 79.636719 102.476562 78.304688 C 105.113281 77 107.867188 76.125 110.65625 75.609375 C 116.199219 74.640625 121.921875 75.304688 127.464844 76.820312 C 132.980469 78.304688 138.339844 80.515625 143.488281 82.605469 C 148.636719 84.753906 153.605469 86.875 158.332031 88.664062 C 163.085938 90.449219 167.570312 91.902344 171.660156 92.996094 C 174.019531 93.601562 176.230469 94.085938 178.292969 94.480469 L 178.292969 239.324219 C 174.503906 239.625 171.539062 242.804688 171.539062 246.652344 C 171.539062 250.289062 174.050781 253.253906 177.503906 253.890625 L 177.503906 269.460938 C 177.503906 306.324219 140.007812 329.707031 124.195312 329.707031 C 119.226562 329.707031 116.621094 333.402344 116.621094 337.066406 C 116.621094 340.730469 119.226562 344.425781 124.195312 344.425781 L 250.804688 344.425781 C 255.773438 344.425781 258.375 340.730469 258.375 337.066406 C 258.375 333.402344 255.773438 329.707031 250.804688 329.707031 C 234.992188 329.707031 197.496094 306.324219 197.496094 269.460938 L 197.496094 253.890625 C 200.917969 253.253906 203.492188 250.289062 203.492188 246.652344 C 203.492188 242.804688 200.492188 239.625 196.738281 239.324219 L 196.738281 94.480469 C 198.765625 94.085938 200.980469 93.601562 203.339844 92.996094 C 207.429688 91.902344 211.941406 90.449219 216.667969 88.632812 C 221.394531 86.875 226.390625 84.753906 231.511719 82.605469 C 236.691406 80.515625 242.019531 78.273438 247.535156 76.820312 C 253.078125 75.304688 258.800781 74.609375 264.34375 75.609375 C 267.128906 76.125 269.886719 77 272.523438 78.304688 C 275.128906 79.636719 277.730469 81.179688 280.09375 83.152344 C 282.546875 85.027344 284.578125 87.210938 287.394531 89.570312 C 288.757812 90.691406 290.179688 91.78125 291.847656 92.691406 C 292.632812 93.144531 293.511719 93.601562 294.453125 93.964844 L 242.445312 231.417969 L 236.78125 231.417969 C 236.78125 239.957031 239.65625 260.070312 297.449219 260.070312 C 355.210938 260.070312 358.089844 239.957031 358.089844 231.417969 L 358.058594 231.417969 " fill-opacity="1" fill-rule="nonzero"/></g></svg>