<svg xmlns="http://www.w3.org/2000/svg" xmlns:xlink="http://www.w3.org/1999/xlink" width="500" zoomAndPan="magnify" viewBox="0 0 375 374.999991" height="500" preserveAspectRatio="xMidYMid meet" version="1.0"><defs><clipPath id="f3d1cc0dec"><path d="M 48.648438 48.648438 L 326.351562 48.648438 L 326.351562 326.351562 L 48.648438 326.351562 Z M 48.648438 48.648438 " clip-rule="nonzero"/></clipPath><clipPath id="6672341729"><path d="M 187.5 48.648438 C 110.8125 48.648438 48.648438 110.8125 48.648438 187.5 C 48.648438 264.1875 110.8125 326.351562 187.5 326.351562 C 264.1875 326.351562 326.351562 264.1875 326.351562 187.5 C 326.351562 110.8125 264.1875 48.648438 187.5 48.648438 Z M 187.5 48.648438 " clip-rule="nonzero"/></clipPath><clipPath id="9f7d377d96"><path d="M 117 155 L 273 155 L 273 275.570312 L 117 275.570312 Z M 117 155 " clip-rule="nonzero"/></clipPath></defs><g clip-path="url(#f3d1cc0dec)"><g clip-path="url(#6672341729)"><path fill="#186c91" d="M 48.648438 48.648438 L 326.351562 48.648438 L 326.351562 326.351562 L 48.648438 326.351562 Z M 48.648438 48.648438 " fill-opacity="1" fill-rule="nonzero"/></g></g><path fill="#f2faff" d="M 203.34375 145.824219 L 188.273438 138.566406 C 187.835938 138.355469 187.324219 138.355469 186.882812 138.566406 L 144.050781 159.144531 C 143.5 159.414062 143.144531 159.972656 143.144531 160.589844 C 143.144531 161.203125 143.496094 161.761719 144.050781 162.03125 L 159.121094 169.289062 C 159.34375 169.394531 159.578125 169.449219 159.820312 169.449219 C 160.054688 169.449219 160.292969 169.394531 160.511719 169.289062 L 203.34375 148.707031 C 203.902344 148.441406 204.25 147.878906 204.25 147.265625 C 204.25 146.648438 203.902344 146.089844 203.34375 145.824219 Z M 203.34375 145.824219 " fill-opacity="1" fill-rule="nonzero"/><path fill="#f2faff" d="M 136.703125 168.019531 C 136.238281 168.3125 135.953125 168.824219 135.953125 169.375 L 135.953125 216.910156 C 135.953125 217.523438 136.304688 218.082031 136.859375 218.351562 L 181.363281 239.777344 C 181.582031 239.886719 181.820312 239.933594 182.058594 239.933594 C 182.355469 239.933594 182.648438 239.851562 182.910156 239.691406 C 183.375 239.402344 183.660156 238.886719 183.660156 238.335938 L 183.660156 190.800781 C 183.660156 190.1875 183.308594 189.625 182.753906 189.359375 L 138.246094 167.933594 C 137.753906 167.695312 137.167969 167.722656 136.703125 168.019531 Z M 147.335938 190.578125 C 147.976562 189.238281 149.355469 188.371094 150.839844 188.371094 C 151.429688 188.371094 151.996094 188.503906 152.539062 188.765625 L 168.9375 196.652344 C 169.875 197.101562 170.578125 197.890625 170.921875 198.878906 C 171.265625 199.859375 171.207031 200.917969 170.753906 201.859375 C 169.863281 203.714844 167.476562 204.609375 165.554688 203.671875 L 149.15625 195.785156 C 148.21875 195.339844 147.515625 194.550781 147.167969 193.570312 C 146.820312 192.585938 146.878906 191.527344 147.335938 190.578125 Z M 147.335938 190.578125 " fill-opacity="1" fill-rule="nonzero"/><path fill="#f2faff" d="M 191.464844 190.804688 L 191.464844 238.339844 C 191.464844 238.886719 191.746094 239.402344 192.214844 239.695312 C 192.472656 239.851562 192.769531 239.933594 193.066406 239.933594 C 193.300781 239.933594 193.539062 239.886719 193.757812 239.78125 L 238.265625 218.351562 C 238.820312 218.085938 239.171875 217.527344 239.171875 216.910156 L 239.171875 169.402344 C 239.171875 168.847656 238.890625 168.335938 238.425781 168.046875 C 237.960938 167.753906 237.371094 167.71875 236.878906 167.957031 L 192.371094 189.359375 C 191.816406 189.625 191.464844 190.191406 191.464844 190.804688 Z M 191.464844 190.804688 " fill-opacity="1" fill-rule="nonzero"/><path fill="#f2faff" d="M 231.082031 159.183594 L 216.035156 151.9375 C 215.597656 151.726562 215.089844 151.726562 214.648438 151.9375 L 171.8125 172.511719 C 171.257812 172.78125 170.902344 173.339844 170.902344 173.957031 C 170.902344 174.570312 171.253906 175.132812 171.8125 175.398438 L 186.871094 182.644531 C 187.089844 182.75 187.324219 182.804688 187.5625 182.804688 C 187.800781 182.804688 188.039062 182.75 188.257812 182.644531 L 231.082031 162.066406 C 231.636719 161.800781 231.992188 161.242188 231.992188 160.625 C 231.988281 160.011719 231.636719 159.453125 231.082031 159.183594 Z M 231.082031 159.183594 " fill-opacity="1" fill-rule="nonzero"/><path fill="#f2faff" d="M 112.382812 224.894531 C 112.878906 224.894531 113.386719 224.800781 113.875 224.605469 C 115.925781 223.777344 116.917969 221.449219 116.09375 219.398438 C 103.351562 187.75 112.660156 152.09375 139.257812 130.675781 C 166.890625 108.410156 205.351562 108.421875 232.792969 128.320312 L 225.234375 134.40625 C 223.96875 135.425781 223.449219 137.101562 223.902344 138.652344 C 224.359375 140.203125 225.707031 141.335938 227.316406 141.507812 L 250.433594 143.992188 C 250.578125 144.007812 250.722656 144.015625 250.871094 144.015625 C 252.886719 144.015625 254.621094 142.496094 254.84375 140.445312 L 257.335938 117.335938 C 257.511719 115.722656 256.695312 114.167969 255.277344 113.394531 C 253.855469 112.613281 252.109375 112.765625 250.84375 113.789062 L 239.238281 123.136719 C 208.839844 99.878906 165.328125 99.386719 134.234375 124.4375 C 104.875 148.085938 94.601562 187.449219 108.667969 222.382812 C 109.296875 223.945312 110.796875 224.894531 112.382812 224.894531 Z M 112.382812 224.894531 " fill-opacity="1" fill-rule="nonzero"/><g clip-path="url(#9f7d377d96)"><path fill="#f2faff" d="M 266.148438 158.097656 C 265.304688 156.058594 262.964844 155.089844 260.914062 155.9375 C 258.875 156.785156 257.90625 159.125 258.75 161.164062 C 271.761719 192.519531 262.359375 229.308594 235.894531 250.636719 C 208.257812 272.898438 169.796875 272.882812 142.351562 252.984375 L 149.90625 246.898438 C 151.167969 245.882812 151.691406 244.207031 151.234375 242.65625 C 150.777344 241.101562 149.433594 239.976562 147.824219 239.800781 L 124.707031 237.304688 C 123.636719 237.1875 122.597656 237.503906 121.769531 238.167969 C 120.941406 238.835938 120.414062 239.800781 120.300781 240.859375 L 117.8125 263.972656 C 117.636719 265.582031 118.449219 267.136719 119.871094 267.910156 C 120.472656 268.238281 121.132812 268.402344 121.789062 268.402344 C 122.683594 268.402344 123.574219 268.101562 124.300781 267.515625 L 135.910156 258.167969 C 150.976562 269.695312 169.257812 275.644531 187.664062 275.640625 C 206.386719 275.640625 225.230469 269.503906 240.914062 256.871094 C 270.136719 233.332031 280.511719 192.714844 266.148438 158.097656 Z M 266.148438 158.097656 " fill-opacity="1" fill-rule="nonzero"/></g></svg>