<svg xmlns="http://www.w3.org/2000/svg" xmlns:xlink="http://www.w3.org/1999/xlink" width="500" zoomAndPan="magnify" viewBox="0 0 375 374.999991" height="500" preserveAspectRatio="xMidYMid meet" version="1.0"><defs><clipPath id="6768affb0b"><path d="M 48.648438 48.648438 L 326.351562 48.648438 L 326.351562 326.351562 L 48.648438 326.351562 Z M 48.648438 48.648438 " clip-rule="nonzero"/></clipPath><clipPath id="76f69676c5"><path d="M 187.5 48.648438 C 110.8125 48.648438 48.648438 110.8125 48.648438 187.5 C 48.648438 264.1875 110.8125 326.351562 187.5 326.351562 C 264.1875 326.351562 326.351562 264.1875 326.351562 187.5 C 326.351562 110.8125 264.1875 48.648438 187.5 48.648438 Z M 187.5 48.648438 " clip-rule="nonzero"/></clipPath></defs><g clip-path="url(#6768affb0b)"><g clip-path="url(#76f69676c5)"><path fill="#186c91" d="M 48.648438 48.648438 L 326.351562 48.648438 L 326.351562 326.351562 L 48.648438 326.351562 Z M 48.648438 48.648438 " fill-opacity="1" fill-rule="nonzero"/></g></g><path fill="#fafeff" d="M 100.269531 126.648438 C 102.078125 123.386719 104.632812 122.300781 110.8125 122.300781 C 116.996094 122.300781 121.347656 123.011719 128.980469 127.382812 C 140.613281 133.929688 152.242188 140.832031 164.230469 147.738281 C 189.3125 133.195312 214.375 118.65625 239.8125 104.121094 C 242.363281 103.03125 245.273438 103.03125 247.449219 104.121094 C 250 105.574219 252.554688 107.027344 255.457031 108.847656 C 259.089844 111.023438 260.175781 114.660156 257.992188 118.300781 C 257.636719 119.023438 256.171875 120.121094 255.457031 120.835938 C 241.277344 133.929688 227.113281 147.003906 212.929688 160.453125 C 210.753906 164.085938 208.578125 168.089844 206.027344 172.085938 C 215.480469 177.527344 224.917969 182.984375 234.726562 188.425781 C 236.925781 190.253906 238.367188 191.707031 240.1875 193.527344 C 241.640625 194.972656 243.09375 196.792969 244.550781 198.609375 C 249.636719 194.972656 254.730469 190.976562 260.179688 186.980469 C 262.71875 184.804688 266.359375 184.441406 269.265625 186.25 C 269.988281 186.625 271.085938 187.347656 272.164062 188.070312 C 275.804688 189.890625 276.527344 193.160156 274.707031 196.792969 C 272.898438 199.699219 271.085938 202.972656 269.265625 206.246094 C 266.714844 210.609375 264.183594 214.96875 261.277344 219.695312 C 258.726562 224.058594 256.171875 228.417969 253.640625 233.148438 C 251.820312 236.054688 250.003906 239.308594 248.179688 242.59375 C 246.007812 246.222656 242.742188 246.957031 239.101562 244.769531 C 238.371094 244.402344 237.28125 244.046875 236.195312 243.316406 C 233.289062 241.496094 231.820312 238.230469 232.554688 234.957031 C 233.285156 228.421875 234.015625 221.875 234.726562 215.328125 C 232.554688 215.328125 230.019531 215.328125 227.824219 214.59375 C 225.652344 213.871094 223.472656 213.152344 220.933594 212.0625 C 211.488281 206.601562 202.03125 201.164062 192.578125 195.703125 C 190.402344 199.339844 188.226562 203.339844 185.675781 207.335938 C 181.3125 226.234375 176.953125 245.132812 172.597656 264.023438 C 172.597656 264.757812 172.222656 266.574219 171.867188 267.664062 C 169.695312 271.296875 166.050781 272.015625 162.414062 270.21875 C 159.871094 268.753906 157.332031 267.308594 154.425781 265.476562 C 152.246094 264.023438 150.785156 261.492188 150.425781 258.941406 L 150.425781 171.355469 C 138.796875 164.808594 127.164062 157.902344 115.167969 151 C 107.542969 146.648438 104.988281 143.375 101.726562 137.925781 C 98.816406 132.464844 98.441406 129.925781 100.269531 126.648438 " fill-opacity="1" fill-rule="evenodd"/></svg>