<svg xmlns="http://www.w3.org/2000/svg" xmlns:xlink="http://www.w3.org/1999/xlink" width="500" zoomAndPan="magnify" viewBox="0 0 375 374.999991" height="500" preserveAspectRatio="xMidYMid meet" version="1.0"><defs><clipPath id="a581bce4f6"><path d="M 48.648438 48.648438 L 326.351562 48.648438 L 326.351562 326.351562 L 48.648438 326.351562 Z M 48.648438 48.648438 " clip-rule="nonzero"/></clipPath><clipPath id="98f9b0c1f6"><path d="M 187.5 48.648438 C 110.8125 48.648438 48.648438 110.8125 48.648438 187.5 C 48.648438 264.1875 110.8125 326.351562 187.5 326.351562 C 264.1875 326.351562 326.351562 264.1875 326.351562 187.5 C 326.351562 110.8125 264.1875 48.648438 187.5 48.648438 Z M 187.5 48.648438 " clip-rule="nonzero"/></clipPath><clipPath id="ecb98a7eee"><path d="M 112.5 114 L 262.5 114 L 262.5 261 L 112.5 261 Z M 112.5 114 " clip-rule="nonzero"/></clipPath></defs><g clip-path="url(#a581bce4f6)"><g clip-path="url(#98f9b0c1f6)"><path fill="#186c91" d="M 48.648438 48.648438 L 326.351562 48.648438 L 326.351562 326.351562 L 48.648438 326.351562 Z M 48.648438 48.648438 " fill-opacity="1" fill-rule="nonzero"/></g></g><g clip-path="url(#ecb98a7eee)"><path fill="#f2faff" d="M 127.167969 163.617188 L 247.847656 163.617188 L 251.941406 243.042969 C 252.078125 245.609375 251.503906 247.628906 250.414062 248.953125 C 249.328125 250.292969 247.886719 251.117188 245.492188 251.117188 L 129.507812 251.117188 C 127.128906 251.117188 125.679688 250.292969 124.585938 248.953125 C 123.507812 247.628906 122.921875 245.609375 123.058594 243.042969 Z M 156.074219 114.203125 C 152.496094 114.203125 149.613281 117.09375 149.613281 120.660156 L 149.613281 142.660156 C 149.613281 146.242188 152.496094 149.121094 156.074219 149.121094 C 159.640625 149.121094 162.523438 146.242188 162.523438 142.660156 L 162.523438 135.160156 C 165.492188 137.25 167.253906 140.644531 167.253906 144.273438 C 167.253906 150.445312 162.246094 155.457031 156.074219 155.457031 C 149.902344 155.457031 144.894531 150.445312 144.894531 144.273438 L 144.894531 125.796875 L 136.980469 125.796875 C 132.574219 125.796875 128.378906 126.910156 125.085938 129.515625 C 121.808594 132.128906 119.726562 136.1875 119.289062 140.820312 L 112.828125 242.621094 C 112.527344 247.304688 113.578125 251.820312 116.359375 255.242188 C 119.140625 258.660156 123.535156 260.800781 128.414062 260.800781 L 246.578125 260.800781 C 251.464844 260.800781 255.859375 258.660156 258.636719 255.242188 C 261.414062 251.820312 262.464844 247.304688 262.167969 242.621094 L 255.710938 140.816406 C 255.269531 136.183594 253.191406 132.128906 249.910156 129.511719 C 246.632812 126.910156 242.4375 125.792969 238.015625 125.792969 L 225.382812 125.792969 L 225.382812 120.660156 C 225.382812 117.089844 222.507812 114.199219 218.921875 114.199219 C 215.34375 114.199219 212.476562 117.089844 212.476562 120.660156 L 212.476562 142.660156 C 212.476562 146.238281 215.34375 149.117188 218.921875 149.117188 C 222.507812 149.117188 225.382812 146.242188 225.382812 142.660156 L 225.382812 135.160156 C 228.339844 137.246094 230.105469 140.640625 230.105469 144.273438 C 230.105469 150.445312 225.097656 155.453125 218.921875 155.453125 C 212.753906 155.453125 207.742188 150.445312 207.742188 144.273438 L 207.742188 125.792969 L 162.523438 125.792969 L 162.523438 120.660156 C 162.523438 117.09375 159.640625 114.203125 156.074219 114.203125 Z M 156.074219 114.203125 " fill-opacity="1" fill-rule="evenodd"/></g><path fill="#f2faff" d="M 234.210938 189.410156 C 234.210938 196.808594 228.214844 202.832031 220.828125 202.832031 C 217.273438 202.832031 213.867188 201.417969 211.363281 198.898438 C 208.859375 196.382812 207.441406 192.964844 207.441406 189.410156 C 207.441406 185.839844 208.859375 182.421875 211.363281 179.910156 C 213.867188 177.390625 217.273438 175.988281 220.828125 175.988281 C 228.214844 175.988281 234.210938 181.984375 234.210938 189.410156 Z M 234.210938 189.410156 " fill-opacity="1" fill-rule="evenodd"/><path fill="#f2faff" d="M 220.816406 206.058594 C 228.164062 206.058594 234.046875 211.894531 234.046875 219.167969 L 234.046875 238.523438 C 234.046875 241.703125 231.507812 244.234375 228.316406 244.234375 L 201.773438 244.234375 C 200.835938 244.234375 200.148438 243.898438 199.683594 243.242188 C 198.503906 241.554688 198.722656 239.898438 199.546875 238.296875 C 199.921875 237.558594 200.738281 237.160156 201.847656 237.058594 L 219.753906 235.417969 C 221.40625 235.253906 222.582031 234.691406 223.246094 233.753906 C 223.921875 232.828125 224.023438 231.726562 224.023438 230.683594 L 224.023438 218.378906 C 224.085938 217.074219 222.65625 217.074219 222.722656 218.378906 L 222.15625 230.210938 C 222.070312 232.171875 221.066406 232.941406 219.578125 233.078125 L 210.023438 234.050781 C 209.023438 234.140625 208.609375 233.523438 208.609375 232.761719 L 208.609375 219.164062 C 208.609375 211.894531 213.476562 206.058594 220.816406 206.058594 Z M 220.816406 206.058594 " fill-opacity="1" fill-rule="evenodd"/><path fill="#f2faff" d="M 167.554688 189.410156 C 167.554688 196.808594 161.570312 202.832031 154.183594 202.832031 C 146.785156 202.832031 140.789062 196.808594 140.789062 189.410156 C 140.789062 185.839844 142.203125 182.421875 144.71875 179.910156 C 147.222656 177.390625 150.628906 175.988281 154.183594 175.988281 C 157.726562 175.988281 161.132812 177.390625 163.648438 179.910156 C 166.152344 182.421875 167.554688 185.839844 167.554688 189.410156 Z M 167.554688 189.410156 " fill-opacity="1" fill-rule="evenodd"/><path fill="#f2faff" d="M 154.183594 206.058594 C 161.519531 206.058594 166.289062 211.894531 166.289062 219.167969 L 166.289062 225.664062 C 166.289062 227.957031 164.414062 228.582031 162.757812 226.394531 L 158.714844 221.007812 C 158.0625 220.019531 157.109375 220.621094 157.664062 221.609375 L 161.132812 227.320312 C 162.773438 230.035156 164.460938 231.484375 166.503906 230.125 L 175.746094 223.925781 C 176.683594 223.289062 177.660156 223.472656 178.398438 223.867188 C 179.6875 224.550781 180.152344 225.339844 180.363281 226.617188 C 180.625 228.132812 180.085938 229.121094 179.113281 229.746094 L 165.664062 238.445312 C 162.898438 240.035156 159.414062 239.121094 157.839844 236.371094 L 150.089844 225.953125 C 149.511719 224.726562 148.097656 225.503906 148.875 226.617188 L 157.953125 240.867188 C 158.527344 241.765625 158.503906 242.796875 156.824219 242.796875 L 140.960938 242.796875 L 140.960938 219.171875 C 140.960938 211.894531 146.835938 206.058594 154.183594 206.058594 Z M 154.183594 206.058594 " fill-opacity="1" fill-rule="evenodd"/><path fill="#f2faff" d="M 176.285156 210.757812 L 188.429688 210.757812 C 189.667969 210.757812 190.253906 211.671875 190.089844 212.722656 L 186.136719 240.203125 C 185.972656 241.253906 185.625 241.59375 184.109375 241.59375 L 172.117188 241.59375 C 171.164062 241.59375 170.847656 241.128906 170.964844 240.339844 L 171.375 237.511719 C 171.476562 236.761719 171.578125 236.773438 172.050781 236.484375 L 180.367188 231.703125 C 181.644531 230.964844 182.382812 229.75 182.585938 228.5 C 182.785156 227.234375 182.507812 225.945312 181.910156 224.804688 C 181.304688 223.679688 180.378906 222.703125 179.164062 222.164062 C 177.953125 221.625 176.472656 221.566406 174.996094 222.214844 L 174.320312 222.515625 C 173.667969 222.800781 173.582031 222.273438 173.621094 221.976562 L 175.097656 211.734375 C 175.179688 211.117188 175.265625 210.757812 176.285156 210.757812 Z M 176.285156 210.757812 " fill-opacity="1" fill-rule="evenodd"/></svg>