<svg xmlns="http://www.w3.org/2000/svg" xmlns:xlink="http://www.w3.org/1999/xlink" width="500" zoomAndPan="magnify" viewBox="0 0 375 374.999991" height="500" preserveAspectRatio="xMidYMid meet" version="1.0"><defs><clipPath id="122a6561b8"><path d="M 21.886719 21.886719 L 353.386719 21.886719 L 353.386719 353.386719 L 21.886719 353.386719 Z M 21.886719 21.886719 " clip-rule="nonzero"/></clipPath></defs><rect x="-37.5" width="450" fill="#ffffff" y="-37.499999" height="449.999989" fill-opacity="1"/><rect x="-37.5" width="450" fill="#fafeff" y="-37.499999" height="449.999989" fill-opacity="1"/><g clip-path="url(#122a6561b8)"><path fill="#186c91" d="M 187.496094 21.886719 C 96.175781 21.886719 21.886719 96.175781 21.886719 187.496094 C 21.886719 278.816406 96.175781 353.105469 187.496094 353.105469 C 278.816406 353.105469 353.105469 278.816406 353.105469 187.496094 C 353.105469 96.175781 278.816406 21.886719 187.496094 21.886719 Z M 53.941406 187.496094 C 53.941406 113.851562 113.851562 53.941406 187.496094 53.941406 C 218.554688 53.941406 247.097656 64.6875 269.808594 82.535156 L 82.535156 269.804688 C 64.6875 247.097656 53.941406 218.554688 53.941406 187.496094 Z M 187.496094 321.050781 C 156.4375 321.050781 127.894531 310.304688 105.183594 292.457031 L 292.457031 105.183594 C 310.304688 127.894531 321.050781 156.4375 321.050781 187.496094 C 321.050781 261.140625 261.140625 321.050781 187.496094 321.050781 Z M 187.496094 321.050781 " fill-opacity="1" fill-rule="nonzero"/></g></svg>