<svg xmlns="http://www.w3.org/2000/svg" xmlns:xlink="http://www.w3.org/1999/xlink" width="500" zoomAndPan="magnify" viewBox="0 0 375 374.999991" height="500" preserveAspectRatio="xMidYMid meet" version="1.0"><defs><clipPath id="72cea10dfb"><path d="M 48.648438 48.648438 L 326.351562 48.648438 L 326.351562 326.351562 L 48.648438 326.351562 Z M 48.648438 48.648438 " clip-rule="nonzero"/></clipPath><clipPath id="9d44feed29"><path d="M 187.5 48.648438 C 110.8125 48.648438 48.648438 110.8125 48.648438 187.5 C 48.648438 264.1875 110.8125 326.351562 187.5 326.351562 C 264.1875 326.351562 326.351562 264.1875 326.351562 187.5 C 326.351562 110.8125 264.1875 48.648438 187.5 48.648438 Z M 187.5 48.648438 " clip-rule="nonzero"/></clipPath><clipPath id="3f49bcb418"><path d="M 98.4375 229 L 276.9375 229 L 276.9375 244.933594 L 98.4375 244.933594 Z M 98.4375 229 " clip-rule="nonzero"/></clipPath><clipPath id="133254a347"><path d="M 187 103.183594 L 276.9375 103.183594 L 276.9375 163 L 187 163 Z M 187 103.183594 " clip-rule="nonzero"/></clipPath></defs><g clip-path="url(#72cea10dfb)"><g clip-path="url(#9d44feed29)"><path fill="#186c91" d="M 48.648438 48.648438 L 326.351562 48.648438 L 326.351562 326.351562 L 48.648438 326.351562 Z M 48.648438 48.648438 " fill-opacity="1" fill-rule="nonzero"/></g></g><g clip-path="url(#3f49bcb418)"><path fill="#f2faff" d="M 269.140625 229.726562 L 105.859375 229.726562 C 101.761719 229.726562 98.4375 233.046875 98.4375 237.148438 C 98.4375 241.253906 101.761719 244.570312 105.859375 244.570312 L 269.140625 244.570312 C 273.234375 244.570312 276.5625 241.253906 276.5625 237.148438 C 276.5625 233.046875 273.234375 229.726562 269.140625 229.726562 Z M 269.140625 229.726562 " fill-opacity="1" fill-rule="nonzero"/></g><path fill="#f2faff" d="M 176.367188 149.941406 C 176.367188 151.871094 176.589844 153.726562 177.109375 155.507812 L 128.125 155.507812 L 128.125 229.726562 L 113.28125 229.726562 L 113.28125 155.507812 C 113.28125 147.34375 119.957031 140.664062 128.125 140.664062 L 176.367188 140.664062 Z M 176.367188 149.941406 " fill-opacity="1" fill-rule="nonzero"/><path fill="#f2faff" d="M 261.71875 171.167969 L 261.71875 229.726562 L 246.875 229.726562 L 246.875 173.394531 C 250.808594 172.503906 254.371094 170.574219 257.261719 167.976562 L 260.972656 170.722656 C 261.195312 170.871094 261.417969 171.09375 261.71875 171.167969 Z M 261.71875 171.167969 " fill-opacity="1" fill-rule="nonzero"/><path fill="#f2faff" d="M 194.921875 185.195312 C 194.921875 193.394531 188.273438 200.039062 180.078125 200.039062 C 171.878906 200.039062 165.234375 193.394531 165.234375 185.195312 C 165.234375 177 171.878906 170.351562 180.078125 170.351562 C 188.273438 170.351562 194.921875 177 194.921875 185.195312 Z M 194.921875 185.195312 " fill-opacity="1" fill-rule="nonzero"/><path fill="#f2faff" d="M 209.765625 227.871094 L 209.765625 229.726562 L 150.390625 229.726562 L 150.390625 227.871094 C 150.390625 216.589844 159.519531 207.460938 170.800781 207.460938 L 189.355469 207.460938 C 200.636719 207.460938 209.765625 216.589844 209.765625 227.871094 Z M 209.765625 227.871094 " fill-opacity="1" fill-rule="nonzero"/><g clip-path="url(#133254a347)"><path fill="#f2faff" d="M 270.996094 162.929688 C 269.816406 162.929688 268.632812 162.550781 267.65625 161.816406 L 254.175781 151.710938 C 253.316406 158.039062 247.867188 162.929688 241.308594 162.929688 L 200.488281 162.929688 C 193.324219 162.929688 187.5 157.105469 187.5 149.941406 L 187.5 114.6875 C 187.5 109.554688 190.898438 103.554688 200.488281 103.554688 L 241.308594 103.554688 C 248.222656 103.554688 253.894531 108.988281 254.273438 115.808594 L 267.433594 104.847656 C 269.078125 103.460938 271.394531 103.164062 273.355469 104.082031 C 275.3125 105.003906 276.5625 106.960938 276.5625 109.121094 L 276.5625 157.363281 C 276.5625 159.472656 275.367188 161.402344 273.480469 162.34375 C 272.695312 162.738281 271.839844 162.929688 270.996094 162.929688 Z M 270.996094 162.929688 " fill-opacity="1" fill-rule="nonzero"/></g></svg>